<?xml version="1.0" encoding="UTF-8" standalone="no"?><svg xmlns="http://www.w3.org/2000/svg" xmlns:xlink="http://www.w3.org/1999/xlink" contentStyleType="text/css" height="807px" preserveAspectRatio="none" style="width:1024px;height:807px;background:#FFFFFF;" version="1.1" viewBox="0 0 1024 807" width="1024px" zoomAndPan="magnify"><defs/><g><!--MD5=[d033de46590f850ffdf7ae6d070a6158]
class ChessBoard--><g id="elem_ChessBoard"><rect codeLine="2" fill="#F1F1F1" height="312.1406" id="ChessBoard" rx="2.5" ry="2.5" style="stroke:#181818;stroke-width:0.5;" width="256" x="92.5" y="256"/><ellipse cx="177.25" cy="272" fill="#ADD1B2" rx="11" ry="11" style="stroke:#181818;stroke-width:1.0;"/><path d="M180.0156,267.875 Q180.1719,267.6563 180.3594,267.5469 Q180.5469,267.4375 180.7656,267.4375 Q181.1406,267.4375 181.375,267.7031 Q181.6094,267.9531 181.6094,268.5625 L181.6094,270.0156 Q181.6094,270.625 181.375,270.8906 Q181.1406,271.1563 180.7656,271.1563 Q180.4219,271.1563 180.2188,270.9531 Q180.0156,270.7656 179.9063,270.25 Q179.8594,269.8906 179.6719,269.7031 Q179.3438,269.3281 178.7344,269.1094 Q178.125,268.8906 177.5,268.8906 Q176.7344,268.8906 176.0938,269.2188 Q175.4688,269.5469 174.9688,270.2969 Q174.4844,271.0469 174.4844,272.0781 L174.4844,273.1719 Q174.4844,274.4063 175.375,275.2344 Q176.2656,276.0469 177.8594,276.0469 Q178.7969,276.0469 179.4531,275.7969 Q179.8438,275.6406 180.2656,275.2031 Q180.5313,274.9375 180.6719,274.8594 Q180.8281,274.7813 181.0313,274.7813 Q181.3594,274.7813 181.6094,275.0469 Q181.875,275.2969 181.875,275.6406 Q181.875,275.9844 181.5313,276.3906 Q181.0313,276.9688 180.2344,277.2969 Q179.1563,277.75 177.8594,277.75 Q176.3438,277.75 175.1406,277.125 Q174.1563,276.625 173.4688,275.5625 Q172.7813,274.4844 172.7813,273.2031 L172.7813,272.0469 Q172.7813,270.7188 173.3906,269.5781 Q174.0156,268.4219 175.1094,267.8125 Q176.2031,267.1875 177.4375,267.1875 Q178.1719,267.1875 178.8125,267.3594 Q179.4688,267.5156 180.0156,267.875 Z " fill="#000000"/><text fill="#000000" font-family="sans-serif" font-size="14" lengthAdjust="spacing" textLength="78" x="197.75" y="277.7285">ChessBoard</text><line style="stroke:#181818;stroke-width:0.5;" x1="93.5" x2="347.5" y1="288" y2="288"/><rect fill="none" height="6" style="stroke:#C82930;stroke-width:1.0;" width="6" x="100.5" y="299.3047"/><text fill="#000000" font-family="sans-serif" font-size="14" lengthAdjust="spacing" textLength="220" x="112.5" y="306.5332">ArrayList&lt;ArrayList&lt;Piece&gt;&gt; board</text><rect fill="none" height="6" style="stroke:#C82930;stroke-width:1.0;" width="6" x="100.5" y="316.9141"/><text fill="#000000" font-family="sans-serif" font-size="14" lengthAdjust="spacing" textLength="76" x="112.5" y="324.1426">Player white</text><rect fill="none" height="6" style="stroke:#C82930;stroke-width:1.0;" width="6" x="100.5" y="334.5234"/><text fill="#000000" font-family="sans-serif" font-size="14" lengthAdjust="spacing" textLength="77" x="112.5" y="341.752">Player black</text><line style="stroke:#181818;stroke-width:0.5;" x1="93.5" x2="347.5" y1="348.8281" y2="348.8281"/><ellipse cx="103.5" cy="363.1328" fill="#84BE84" rx="3" ry="3" style="stroke:#038048;stroke-width:1.0;"/><text fill="#000000" font-family="sans-serif" font-size="14" lengthAdjust="spacing" textLength="222" x="112.5" y="367.3613">Piece getPosition(Position position)</text><ellipse cx="103.5" cy="380.7422" fill="#84BE84" rx="3" ry="3" style="stroke:#038048;stroke-width:1.0;"/><text fill="#000000" font-family="sans-serif" font-size="14" lengthAdjust="spacing" textLength="221" x="112.5" y="384.9707">void move(Piece piece, Position to)</text><ellipse cx="103.5" cy="398.3516" fill="#84BE84" rx="3" ry="3" style="stroke:#038048;stroke-width:1.0;"/><text fill="#000000" font-family="sans-serif" font-size="14" lengthAdjust="spacing" textLength="199" x="112.5" y="402.5801">boolean inCheck(Player player)</text><ellipse cx="103.5" cy="415.9609" fill="#84BE84" rx="3" ry="3" style="stroke:#038048;stroke-width:1.0;"/><text fill="#000000" font-family="sans-serif" font-size="14" lengthAdjust="spacing" textLength="173" x="112.5" y="420.1895">Piece getLastPieceMoved()</text><ellipse cx="103.5" cy="433.5703" fill="#84BE84" rx="3" ry="3" style="stroke:#038048;stroke-width:1.0;"/><text fill="#000000" font-family="sans-serif" font-size="14" lengthAdjust="spacing" textLength="162" x="112.5" y="437.7988">String getCastlingRights()</text><ellipse cx="103.5" cy="451.1797" fill="#84BE84" rx="3" ry="3" style="stroke:#038048;stroke-width:1.0;"/><text fill="#000000" font-family="sans-serif" font-size="14" lengthAdjust="spacing" textLength="98" x="112.5" y="455.4082">String getFEN()</text><ellipse cx="103.5" cy="468.7891" fill="#84BE84" rx="3" ry="3" style="stroke:#038048;stroke-width:1.0;"/><text fill="#000000" font-family="sans-serif" font-size="14" lengthAdjust="spacing" textLength="144" x="112.5" y="473.0176">Player getPlayerTurn()</text><ellipse cx="103.5" cy="486.3984" fill="#84BE84" rx="3" ry="3" style="stroke:#038048;stroke-width:1.0;"/><text fill="#000000" font-family="sans-serif" font-size="14" lengthAdjust="spacing" textLength="177" x="112.5" y="490.627">boolean getGameFinished()</text><ellipse cx="103.5" cy="504.0078" fill="#84BE84" rx="3" ry="3" style="stroke:#038048;stroke-width:1.0;"/><text fill="#000000" font-family="sans-serif" font-size="14" lengthAdjust="spacing" textLength="159" x="112.5" y="508.2363">Piece getSelectedPiece()</text><rect fill="#F24D5C" height="6" style="stroke:#C82930;stroke-width:1.0;" width="6" x="100.5" y="518.6172"/><text fill="#000000" font-family="sans-serif" font-size="14" lengthAdjust="spacing" textLength="108" x="112.5" y="525.8457">boolean inDraw()</text><rect fill="#F24D5C" height="6" style="stroke:#C82930;stroke-width:1.0;" width="6" x="100.5" y="536.2266"/><text fill="#000000" font-family="sans-serif" font-size="14" lengthAdjust="spacing" textLength="222" x="112.5" y="543.4551">boolean inStalemate(Player player)</text><rect fill="#F24D5C" height="6" style="stroke:#C82930;stroke-width:1.0;" width="6" x="100.5" y="553.8359"/><text fill="#000000" font-family="sans-serif" font-size="14" lengthAdjust="spacing" textLength="230" x="112.5" y="561.0645">boolean inCheckmate(Player player)</text></g><!--MD5=[a64a835c3d62471a77f615251fdde58a]
class Position--><g id="elem_Position"><rect codeLine="21" fill="#F1F1F1" height="118.4375" id="Position" rx="2.5" ry="2.5" style="stroke:#181818;stroke-width:0.5;" width="84" x="514.5" y="33.5"/><ellipse cx="530.4" cy="49.5" fill="#ADD1B2" rx="11" ry="11" style="stroke:#181818;stroke-width:1.0;"/><path d="M533.1656,45.375 Q533.3219,45.1563 533.5094,45.0469 Q533.6969,44.9375 533.9156,44.9375 Q534.2906,44.9375 534.525,45.2031 Q534.7594,45.4531 534.7594,46.0625 L534.7594,47.5156 Q534.7594,48.125 534.525,48.3906 Q534.2906,48.6563 533.9156,48.6563 Q533.5719,48.6563 533.3688,48.4531 Q533.1656,48.2656 533.0563,47.75 Q533.0094,47.3906 532.8219,47.2031 Q532.4938,46.8281 531.8844,46.6094 Q531.275,46.3906 530.65,46.3906 Q529.8844,46.3906 529.2438,46.7188 Q528.6188,47.0469 528.1188,47.7969 Q527.6344,48.5469 527.6344,49.5781 L527.6344,50.6719 Q527.6344,51.9063 528.525,52.7344 Q529.4156,53.5469 531.0094,53.5469 Q531.9469,53.5469 532.6031,53.2969 Q532.9938,53.1406 533.4156,52.7031 Q533.6813,52.4375 533.8219,52.3594 Q533.9781,52.2813 534.1813,52.2813 Q534.5094,52.2813 534.7594,52.5469 Q535.025,52.7969 535.025,53.1406 Q535.025,53.4844 534.6813,53.8906 Q534.1813,54.4688 533.3844,54.7969 Q532.3063,55.25 531.0094,55.25 Q529.4938,55.25 528.2906,54.625 Q527.3063,54.125 526.6188,53.0625 Q525.9313,51.9844 525.9313,50.7031 L525.9313,49.5469 Q525.9313,48.2188 526.5406,47.0781 Q527.1656,45.9219 528.2594,45.3125 Q529.3531,44.6875 530.5875,44.6875 Q531.3219,44.6875 531.9625,44.8594 Q532.6188,45.0156 533.1656,45.375 Z " fill="#000000"/><text fill="#000000" font-family="sans-serif" font-size="14" lengthAdjust="spacing" textLength="50" x="544.6" y="55.2285">Position</text><line style="stroke:#181818;stroke-width:0.5;" x1="515.5" x2="597.5" y1="65.5" y2="65.5"/><rect fill="none" height="6" style="stroke:#C82930;stroke-width:1.0;" width="6" x="522.5" y="76.8047"/><text fill="#000000" font-family="sans-serif" font-size="14" lengthAdjust="spacing" textLength="25" x="534.5" y="84.0332">int x</text><rect fill="none" height="6" style="stroke:#C82930;stroke-width:1.0;" width="6" x="522.5" y="94.4141"/><text fill="#000000" font-family="sans-serif" font-size="14" lengthAdjust="spacing" textLength="26" x="534.5" y="101.6426">int y</text><line style="stroke:#181818;stroke-width:0.5;" x1="515.5" x2="597.5" y1="108.7188" y2="108.7188"/><ellipse cx="525.5" cy="123.0234" fill="#84BE84" rx="3" ry="3" style="stroke:#038048;stroke-width:1.0;"/><text fill="#000000" font-family="sans-serif" font-size="14" lengthAdjust="spacing" textLength="57" x="534.5" y="127.252">int getX()</text><ellipse cx="525.5" cy="140.6328" fill="#84BE84" rx="3" ry="3" style="stroke:#038048;stroke-width:1.0;"/><text fill="#000000" font-family="sans-serif" font-size="14" lengthAdjust="spacing" textLength="58" x="534.5" y="144.8613">int getY()</text></g><!--MD5=[2cb47ba637a0d19583e6199456f6ad0b]
class Player--><g id="elem_Player"><rect codeLine="28" fill="#F1F1F1" height="171.2656" id="Player" rx="2.5" ry="2.5" style="stroke:#181818;stroke-width:0.5;" width="188" x="250.5" y="7"/><ellipse cx="320.25" cy="23" fill="#ADD1B2" rx="11" ry="11" style="stroke:#181818;stroke-width:1.0;"/><path d="M323.0156,18.875 Q323.1719,18.6563 323.3594,18.5469 Q323.5469,18.4375 323.7656,18.4375 Q324.1406,18.4375 324.375,18.7031 Q324.6094,18.9531 324.6094,19.5625 L324.6094,21.0156 Q324.6094,21.625 324.375,21.8906 Q324.1406,22.1563 323.7656,22.1563 Q323.4219,22.1563 323.2188,21.9531 Q323.0156,21.7656 322.9063,21.25 Q322.8594,20.8906 322.6719,20.7031 Q322.3438,20.3281 321.7344,20.1094 Q321.125,19.8906 320.5,19.8906 Q319.7344,19.8906 319.0938,20.2188 Q318.4688,20.5469 317.9688,21.2969 Q317.4844,22.0469 317.4844,23.0781 L317.4844,24.1719 Q317.4844,25.4063 318.375,26.2344 Q319.2656,27.0469 320.8594,27.0469 Q321.7969,27.0469 322.4531,26.7969 Q322.8438,26.6406 323.2656,26.2031 Q323.5313,25.9375 323.6719,25.8594 Q323.8281,25.7813 324.0313,25.7813 Q324.3594,25.7813 324.6094,26.0469 Q324.875,26.2969 324.875,26.6406 Q324.875,26.9844 324.5313,27.3906 Q324.0313,27.9688 323.2344,28.2969 Q322.1563,28.75 320.8594,28.75 Q319.3438,28.75 318.1406,28.125 Q317.1563,27.625 316.4688,26.5625 Q315.7813,25.4844 315.7813,24.2031 L315.7813,23.0469 Q315.7813,21.7188 316.3906,20.5781 Q317.0156,19.4219 318.1094,18.8125 Q319.2031,18.1875 320.4375,18.1875 Q321.1719,18.1875 321.8125,18.3594 Q322.4688,18.5156 323.0156,18.875 Z " fill="#000000"/><text fill="#000000" font-family="sans-serif" font-size="14" lengthAdjust="spacing" textLength="40" x="340.75" y="28.7285">Player</text><line style="stroke:#181818;stroke-width:0.5;" x1="251.5" x2="437.5" y1="39" y2="39"/><rect fill="none" height="6" style="stroke:#C82930;stroke-width:1.0;" width="6" x="258.5" y="50.3047"/><text fill="#000000" font-family="sans-serif" font-size="14" lengthAdjust="spacing" textLength="87" x="270.5" y="57.5332">boolean white</text><line style="stroke:#181818;stroke-width:0.5;" x1="251.5" x2="437.5" y1="64.6094" y2="64.6094"/><ellipse cx="261.5" cy="78.9141" fill="#84BE84" rx="3" ry="3" style="stroke:#038048;stroke-width:1.0;"/><text fill="#000000" font-family="sans-serif" font-size="14" lengthAdjust="spacing" textLength="133" x="270.5" y="83.1426">void toggleHasTurn()</text><ellipse cx="261.5" cy="96.5234" fill="#84BE84" rx="3" ry="3" style="stroke:#038048;stroke-width:1.0;"/><text fill="#000000" font-family="sans-serif" font-size="14" lengthAdjust="spacing" textLength="118" x="270.5" y="100.752">boolean hasTurn()</text><ellipse cx="261.5" cy="114.1328" fill="#84BE84" rx="3" ry="3" style="stroke:#038048;stroke-width:1.0;"/><text fill="#000000" font-family="sans-serif" font-size="14" lengthAdjust="spacing" textLength="67" x="270.5" y="118.3613">int getDir()</text><ellipse cx="261.5" cy="131.7422" fill="#84BE84" rx="3" ry="3" style="stroke:#038048;stroke-width:1.0;"/><text fill="#000000" font-family="sans-serif" font-size="14" lengthAdjust="spacing" textLength="111" x="270.5" y="135.9707">boolean isWhite()</text><ellipse cx="261.5" cy="149.3516" fill="#84BE84" rx="3" ry="3" style="stroke:#038048;stroke-width:1.0;"/><text fill="#000000" font-family="sans-serif" font-size="14" lengthAdjust="spacing" textLength="136" x="270.5" y="153.5801">void disableCastling()</text><ellipse cx="261.5" cy="166.9609" fill="#84BE84" rx="3" ry="3" style="stroke:#038048;stroke-width:1.0;"/><text fill="#000000" font-family="sans-serif" font-size="14" lengthAdjust="spacing" textLength="162" x="270.5" y="171.1895">String getCastlingRights()</text></g><!--MD5=[e05bacf3ff4416a0580578814d41bbf6]
class Piece--><g id="elem_Piece"><rect codeLine="39" fill="#F1F1F1" height="276.9219" id="Piece" rx="2.5" ry="2.5" style="stroke:#181818;stroke-width:0.5;" width="266" x="423.5" y="273.5"/><ellipse cx="534.75" cy="289.5" fill="#A9DCDF" rx="11" ry="11" style="stroke:#181818;stroke-width:1.0;"/><path d="M536.9375,291.2656 L532.7969,291.2656 L532.375,292.2969 L532.7969,292.2969 Q533.4063,292.2969 533.6719,292.5313 Q533.9375,292.7656 533.9375,293.1563 Q533.9375,293.5313 533.6719,293.7656 Q533.4063,294 532.7969,294 L530.5,294 Q529.8906,294 529.6406,293.7656 Q529.375,293.5313 529.375,293.1406 Q529.375,292.7656 529.6563,292.5313 Q529.9219,292.2813 530.5469,292.2969 L533.2188,285.6406 L532.1094,285.6406 Q531.5,285.6406 531.2344,285.4063 Q530.9688,285.1719 530.9688,284.7813 Q530.9688,284.4063 531.2344,284.1719 Q531.5,283.9375 532.1094,283.9375 L535.7813,283.9375 L539.1719,292.2969 Q539.7656,292.2969 539.9531,292.4375 Q540.3438,292.7031 540.3438,293.1563 Q540.3438,293.5313 540.0781,293.7656 Q539.8281,294 539.2188,294 L536.9219,294 Q536.3125,294 536.0469,293.7656 Q535.7813,293.5313 535.7813,293.1406 Q535.7813,292.7656 536.0469,292.5313 Q536.3125,292.2969 536.9219,292.2969 L537.3438,292.2969 L536.9375,291.2656 Z M536.2188,289.5625 L534.8594,286.1875 L533.4844,289.5625 L536.2188,289.5625 Z " fill="#000000"/><text fill="#000000" font-family="sans-serif" font-size="14" font-style="italic" lengthAdjust="spacing" textLength="35" x="555.25" y="295.2285">Piece</text><line style="stroke:#181818;stroke-width:0.5;" x1="424.5" x2="688.5" y1="305.5" y2="305.5"/><polygon fill="none" points="434.5,314.8047,438.5,318.8047,434.5,322.8047,430.5,318.8047" style="stroke:#B38D22;stroke-width:1.0;"/><text fill="#000000" font-family="sans-serif" font-size="14" lengthAdjust="spacing" textLength="77" x="443.5" y="324.0332">Position pos</text><polygon fill="none" points="434.5,332.4141,438.5,336.4141,434.5,340.4141,430.5,336.4141" style="stroke:#B38D22;stroke-width:1.0;"/><text fill="#000000" font-family="sans-serif" font-size="14" lengthAdjust="spacing" textLength="119" x="443.5" y="341.6426">ChessBoard board</text><polygon fill="none" points="434.5,350.0234,438.5,354.0234,434.5,358.0234,430.5,354.0234" style="stroke:#B38D22;stroke-width:1.0;"/><text fill="#000000" font-family="sans-serif" font-size="14" lengthAdjust="spacing" textLength="82" x="443.5" y="359.252">Player owner</text><polygon fill="none" points="434.5,367.6328,438.5,371.6328,434.5,375.6328,430.5,371.6328" style="stroke:#B38D22;stroke-width:1.0;"/><text fill="#000000" font-family="sans-serif" font-size="14" lengthAdjust="spacing" textLength="76" x="443.5" y="376.8613">String name</text><line style="stroke:#181818;stroke-width:0.5;" x1="424.5" x2="688.5" y1="383.9375" y2="383.9375"/><polygon fill="#FFFF44" points="434.5,393.2422,438.5,397.2422,434.5,401.2422,430.5,397.2422" style="stroke:#B38D22;stroke-width:1.0;"/><text fill="#000000" font-family="sans-serif" font-size="14" font-style="italic" lengthAdjust="spacing" textLength="240" x="443.5" y="402.4707">boolean threatening(Position position)</text><ellipse cx="434.5" cy="415.8516" fill="#84BE84" rx="3" ry="3" style="stroke:#038048;stroke-width:1.0;"/><text fill="#000000" font-family="sans-serif" font-size="14" font-style="italic" lengthAdjust="spacing" textLength="238" x="443.5" y="420.0801">Collection&lt;Position&gt; getLegalMoves()</text><ellipse cx="434.5" cy="433.4609" fill="#84BE84" rx="3" ry="3" style="stroke:#038048;stroke-width:1.0;"/><text fill="#000000" font-family="sans-serif" font-size="14" lengthAdjust="spacing" textLength="57" x="443.5" y="437.6895">int getX()</text><ellipse cx="434.5" cy="451.0703" fill="#84BE84" rx="3" ry="3" style="stroke:#038048;stroke-width:1.0;"/><text fill="#000000" font-family="sans-serif" font-size="14" lengthAdjust="spacing" textLength="58" x="443.5" y="455.2988">int getY()</text><ellipse cx="434.5" cy="468.6797" fill="#84BE84" rx="3" ry="3" style="stroke:#038048;stroke-width:1.0;"/><text fill="#000000" font-family="sans-serif" font-size="14" lengthAdjust="spacing" textLength="206" x="443.5" y="472.9082">boolean isValidMove(Position to)</text><ellipse cx="434.5" cy="486.2891" fill="#84BE84" rx="3" ry="3" style="stroke:#038048;stroke-width:1.0;"/><text fill="#000000" font-family="sans-serif" font-size="14" lengthAdjust="spacing" textLength="111" x="443.5" y="490.5176">boolean isWhite()</text><ellipse cx="434.5" cy="503.8984" fill="#84BE84" rx="3" ry="3" style="stroke:#038048;stroke-width:1.0;"/><text fill="#000000" font-family="sans-serif" font-size="14" lengthAdjust="spacing" textLength="108" x="443.5" y="508.127">Position getPos()</text><ellipse cx="434.5" cy="521.5078" fill="#84BE84" rx="3" ry="3" style="stroke:#038048;stroke-width:1.0;"/><text fill="#000000" font-family="sans-serif" font-size="14" lengthAdjust="spacing" textLength="140" x="443.5" y="525.7363">void move(Position to)</text><ellipse cx="434.5" cy="539.1172" fill="#84BE84" rx="3" ry="3" style="stroke:#038048;stroke-width:1.0;"/><text fill="#000000" font-family="sans-serif" font-size="14" lengthAdjust="spacing" textLength="115" x="443.5" y="543.3457">Player getOwner()</text></g><!--MD5=[2a81b7d88c9d35220bf686282fa5f468]
class LinearPiece--><g id="elem_LinearPiece"><rect codeLine="56" fill="#F1F1F1" height="83.2188" id="LinearPiece" rx="2.5" ry="2.5" style="stroke:#181818;stroke-width:0.5;" width="301" x="673" y="51"/><ellipse cx="781.75" cy="67" fill="#A9DCDF" rx="11" ry="11" style="stroke:#181818;stroke-width:1.0;"/><path d="M783.9375,68.7656 L779.7969,68.7656 L779.375,69.7969 L779.7969,69.7969 Q780.4063,69.7969 780.6719,70.0313 Q780.9375,70.2656 780.9375,70.6563 Q780.9375,71.0313 780.6719,71.2656 Q780.4063,71.5 779.7969,71.5 L777.5,71.5 Q776.8906,71.5 776.6406,71.2656 Q776.375,71.0313 776.375,70.6406 Q776.375,70.2656 776.6563,70.0313 Q776.9219,69.7813 777.5469,69.7969 L780.2188,63.1406 L779.1094,63.1406 Q778.5,63.1406 778.2344,62.9063 Q777.9688,62.6719 777.9688,62.2813 Q777.9688,61.9063 778.2344,61.6719 Q778.5,61.4375 779.1094,61.4375 L782.7813,61.4375 L786.1719,69.7969 Q786.7656,69.7969 786.9531,69.9375 Q787.3438,70.2031 787.3438,70.6563 Q787.3438,71.0313 787.0781,71.2656 Q786.8281,71.5 786.2188,71.5 L783.9219,71.5 Q783.3125,71.5 783.0469,71.2656 Q782.7813,71.0313 782.7813,70.6406 Q782.7813,70.2656 783.0469,70.0313 Q783.3125,69.7969 783.9219,69.7969 L784.3438,69.7969 L783.9375,68.7656 Z M783.2188,67.0625 L781.8594,63.6875 L780.4844,67.0625 L783.2188,67.0625 Z " fill="#000000"/><text fill="#000000" font-family="sans-serif" font-size="14" font-style="italic" lengthAdjust="spacing" textLength="75" x="802.25" y="72.7285">LinearPiece</text><line style="stroke:#181818;stroke-width:0.5;" x1="674" x2="973" y1="83" y2="83"/><rect fill="none" height="6" style="stroke:#C82930;stroke-width:1.0;" width="6" x="681" y="94.3047"/><text fill="#000000" font-family="sans-serif" font-size="14" lengthAdjust="spacing" textLength="225" x="693" y="101.5332">Collection&lt;Position&gt; legalDirections</text><line style="stroke:#181818;stroke-width:0.5;" x1="674" x2="973" y1="108.6094" y2="108.6094"/><polygon fill="#FFFF44" points="684,117.9141,688,121.9141,684,125.9141,680,121.9141" style="stroke:#B38D22;stroke-width:1.0;"/><text fill="#000000" font-family="sans-serif" font-size="14" lengthAdjust="spacing" textLength="275" x="693" y="127.1426">void setDirections(List&lt;Position&gt; directions)</text></g><!--MD5=[449cd079d44679d193659f94873ba755]
class Bishop--><g id="elem_Bishop"><rect codeLine="62" fill="#F1F1F1" height="48" id="Bishop" rx="2.5" ry="2.5" style="stroke:#181818;stroke-width:0.5;" width="75" x="825" y="388"/><ellipse cx="840" cy="404" fill="#ADD1B2" rx="11" ry="11" style="stroke:#181818;stroke-width:1.0;"/><path d="M842.7656,399.875 Q842.9219,399.6563 843.1094,399.5469 Q843.2969,399.4375 843.5156,399.4375 Q843.8906,399.4375 844.125,399.7031 Q844.3594,399.9531 844.3594,400.5625 L844.3594,402.0156 Q844.3594,402.625 844.125,402.8906 Q843.8906,403.1563 843.5156,403.1563 Q843.1719,403.1563 842.9688,402.9531 Q842.7656,402.7656 842.6563,402.25 Q842.6094,401.8906 842.4219,401.7031 Q842.0938,401.3281 841.4844,401.1094 Q840.875,400.8906 840.25,400.8906 Q839.4844,400.8906 838.8438,401.2188 Q838.2188,401.5469 837.7188,402.2969 Q837.2344,403.0469 837.2344,404.0781 L837.2344,405.1719 Q837.2344,406.4063 838.125,407.2344 Q839.0156,408.0469 840.6094,408.0469 Q841.5469,408.0469 842.2031,407.7969 Q842.5938,407.6406 843.0156,407.2031 Q843.2813,406.9375 843.4219,406.8594 Q843.5781,406.7813 843.7813,406.7813 Q844.1094,406.7813 844.3594,407.0469 Q844.625,407.2969 844.625,407.6406 Q844.625,407.9844 844.2813,408.3906 Q843.7813,408.9688 842.9844,409.2969 Q841.9063,409.75 840.6094,409.75 Q839.0938,409.75 837.8906,409.125 Q836.9063,408.625 836.2188,407.5625 Q835.5313,406.4844 835.5313,405.2031 L835.5313,404.0469 Q835.5313,402.7188 836.1406,401.5781 Q836.7656,400.4219 837.8594,399.8125 Q838.9531,399.1875 840.1875,399.1875 Q840.9219,399.1875 841.5625,399.3594 Q842.2188,399.5156 842.7656,399.875 Z " fill="#000000"/><text fill="#000000" font-family="sans-serif" font-size="14" lengthAdjust="spacing" textLength="43" x="854" y="409.7285">Bishop</text><line style="stroke:#181818;stroke-width:0.5;" x1="826" x2="899" y1="420" y2="420"/><line style="stroke:#181818;stroke-width:0.5;" x1="826" x2="899" y1="428" y2="428"/></g><!--MD5=[b5524c1f1cf4f7aeecdc9b5af5b05d87]
class Queen--><g id="elem_Queen"><rect codeLine="65" fill="#F1F1F1" height="48" id="Queen" rx="2.5" ry="2.5" style="stroke:#181818;stroke-width:0.5;" width="75" x="935" y="388"/><ellipse cx="950" cy="404" fill="#ADD1B2" rx="11" ry="11" style="stroke:#181818;stroke-width:1.0;"/><path d="M952.7656,399.875 Q952.9219,399.6563 953.1094,399.5469 Q953.2969,399.4375 953.5156,399.4375 Q953.8906,399.4375 954.125,399.7031 Q954.3594,399.9531 954.3594,400.5625 L954.3594,402.0156 Q954.3594,402.625 954.125,402.8906 Q953.8906,403.1563 953.5156,403.1563 Q953.1719,403.1563 952.9688,402.9531 Q952.7656,402.7656 952.6563,402.25 Q952.6094,401.8906 952.4219,401.7031 Q952.0938,401.3281 951.4844,401.1094 Q950.875,400.8906 950.25,400.8906 Q949.4844,400.8906 948.8438,401.2188 Q948.2188,401.5469 947.7188,402.2969 Q947.2344,403.0469 947.2344,404.0781 L947.2344,405.1719 Q947.2344,406.4063 948.125,407.2344 Q949.0156,408.0469 950.6094,408.0469 Q951.5469,408.0469 952.2031,407.7969 Q952.5938,407.6406 953.0156,407.2031 Q953.2813,406.9375 953.4219,406.8594 Q953.5781,406.7813 953.7813,406.7813 Q954.1094,406.7813 954.3594,407.0469 Q954.625,407.2969 954.625,407.6406 Q954.625,407.9844 954.2813,408.3906 Q953.7813,408.9688 952.9844,409.2969 Q951.9063,409.75 950.6094,409.75 Q949.0938,409.75 947.8906,409.125 Q946.9063,408.625 946.2188,407.5625 Q945.5313,406.4844 945.5313,405.2031 L945.5313,404.0469 Q945.5313,402.7188 946.1406,401.5781 Q946.7656,400.4219 947.8594,399.8125 Q948.9531,399.1875 950.1875,399.1875 Q950.9219,399.1875 951.5625,399.3594 Q952.2188,399.5156 952.7656,399.875 Z " fill="#000000"/><text fill="#000000" font-family="sans-serif" font-size="14" lengthAdjust="spacing" textLength="43" x="964" y="409.7285">Queen</text><line style="stroke:#181818;stroke-width:0.5;" x1="936" x2="1009" y1="420" y2="420"/><line style="stroke:#181818;stroke-width:0.5;" x1="936" x2="1009" y1="428" y2="428"/></g><!--MD5=[6bd8cd731001ea389c78559e5d225136]
class Rook--><g id="elem_Rook"><rect codeLine="68" fill="#F1F1F1" height="48" id="Rook" rx="2.5" ry="2.5" style="stroke:#181818;stroke-width:0.5;" width="65" x="725" y="388"/><ellipse cx="740" cy="404" fill="#ADD1B2" rx="11" ry="11" style="stroke:#181818;stroke-width:1.0;"/><path d="M742.7656,399.875 Q742.9219,399.6563 743.1094,399.5469 Q743.2969,399.4375 743.5156,399.4375 Q743.8906,399.4375 744.125,399.7031 Q744.3594,399.9531 744.3594,400.5625 L744.3594,402.0156 Q744.3594,402.625 744.125,402.8906 Q743.8906,403.1563 743.5156,403.1563 Q743.1719,403.1563 742.9688,402.9531 Q742.7656,402.7656 742.6563,402.25 Q742.6094,401.8906 742.4219,401.7031 Q742.0938,401.3281 741.4844,401.1094 Q740.875,400.8906 740.25,400.8906 Q739.4844,400.8906 738.8438,401.2188 Q738.2188,401.5469 737.7188,402.2969 Q737.2344,403.0469 737.2344,404.0781 L737.2344,405.1719 Q737.2344,406.4063 738.125,407.2344 Q739.0156,408.0469 740.6094,408.0469 Q741.5469,408.0469 742.2031,407.7969 Q742.5938,407.6406 743.0156,407.2031 Q743.2813,406.9375 743.4219,406.8594 Q743.5781,406.7813 743.7813,406.7813 Q744.1094,406.7813 744.3594,407.0469 Q744.625,407.2969 744.625,407.6406 Q744.625,407.9844 744.2813,408.3906 Q743.7813,408.9688 742.9844,409.2969 Q741.9063,409.75 740.6094,409.75 Q739.0938,409.75 737.8906,409.125 Q736.9063,408.625 736.2188,407.5625 Q735.5313,406.4844 735.5313,405.2031 L735.5313,404.0469 Q735.5313,402.7188 736.1406,401.5781 Q736.7656,400.4219 737.8594,399.8125 Q738.9531,399.1875 740.1875,399.1875 Q740.9219,399.1875 741.5625,399.3594 Q742.2188,399.5156 742.7656,399.875 Z " fill="#000000"/><text fill="#000000" font-family="sans-serif" font-size="14" lengthAdjust="spacing" textLength="33" x="754" y="409.7285">Rook</text><line style="stroke:#181818;stroke-width:0.5;" x1="726" x2="789" y1="420" y2="420"/><line style="stroke:#181818;stroke-width:0.5;" x1="726" x2="789" y1="428" y2="428"/></g><!--MD5=[af29ca247b3a3642f0fb478cea99ef78]
class Pawn--><g id="elem_Pawn"><rect codeLine="71" fill="#F1F1F1" height="171.2656" id="Pawn" rx="2.5" ry="2.5" style="stroke:#181818;stroke-width:0.5;" width="393" x="7" y="629"/><ellipse cx="182.25" cy="645" fill="#ADD1B2" rx="11" ry="11" style="stroke:#181818;stroke-width:1.0;"/><path d="M185.0156,640.875 Q185.1719,640.6563 185.3594,640.5469 Q185.5469,640.4375 185.7656,640.4375 Q186.1406,640.4375 186.375,640.7031 Q186.6094,640.9531 186.6094,641.5625 L186.6094,643.0156 Q186.6094,643.625 186.375,643.8906 Q186.1406,644.1563 185.7656,644.1563 Q185.4219,644.1563 185.2188,643.9531 Q185.0156,643.7656 184.9063,643.25 Q184.8594,642.8906 184.6719,642.7031 Q184.3438,642.3281 183.7344,642.1094 Q183.125,641.8906 182.5,641.8906 Q181.7344,641.8906 181.0938,642.2188 Q180.4688,642.5469 179.9688,643.2969 Q179.4844,644.0469 179.4844,645.0781 L179.4844,646.1719 Q179.4844,647.4063 180.375,648.2344 Q181.2656,649.0469 182.8594,649.0469 Q183.7969,649.0469 184.4531,648.7969 Q184.8438,648.6406 185.2656,648.2031 Q185.5313,647.9375 185.6719,647.8594 Q185.8281,647.7813 186.0313,647.7813 Q186.3594,647.7813 186.6094,648.0469 Q186.875,648.2969 186.875,648.6406 Q186.875,648.9844 186.5313,649.3906 Q186.0313,649.9688 185.2344,650.2969 Q184.1563,650.75 182.8594,650.75 Q181.3438,650.75 180.1406,650.125 Q179.1563,649.625 178.4688,648.5625 Q177.7813,647.4844 177.7813,646.2031 L177.7813,645.0469 Q177.7813,643.7188 178.3906,642.5781 Q179.0156,641.4219 180.1094,640.8125 Q181.2031,640.1875 182.4375,640.1875 Q183.1719,640.1875 183.8125,640.3594 Q184.4688,640.5156 185.0156,640.875 Z " fill="#000000"/><text fill="#000000" font-family="sans-serif" font-size="14" lengthAdjust="spacing" textLength="34" x="202.75" y="650.7285">Pawn</text><line style="stroke:#181818;stroke-width:0.5;" x1="8" x2="399" y1="661" y2="661"/><rect fill="none" height="6" style="stroke:#C82930;stroke-width:1.0;" width="6" x="15" y="672.3047"/><text fill="#000000" font-family="sans-serif" font-size="14" lengthAdjust="spacing" textLength="120" x="27" y="679.5332">boolean hasMoved</text><rect fill="none" height="6" style="stroke:#C82930;stroke-width:1.0;" width="6" x="15" y="689.9141"/><text fill="#000000" font-family="sans-serif" font-size="14" lengthAdjust="spacing" textLength="181" x="27" y="697.1426">boolean hasMadeAnPassant</text><line style="stroke:#181818;stroke-width:0.5;" x1="8" x2="399" y1="704.2188" y2="704.2188"/><ellipse cx="18" cy="718.5234" fill="#84BE84" rx="3" ry="3" style="stroke:#038048;stroke-width:1.0;"/><text fill="#000000" font-family="sans-serif" font-size="14" lengthAdjust="spacing" textLength="367" x="27" y="722.752">void setHasMadeAnPassant(boolean hasMadeAnPassant)</text><ellipse cx="18" cy="736.1328" fill="#84BE84" rx="3" ry="3" style="stroke:#038048;stroke-width:1.0;"/><text fill="#000000" font-family="sans-serif" font-size="14" lengthAdjust="spacing" textLength="212" x="27" y="740.3613">boolean getHasMadeEnPassant()</text><rect fill="#F24D5C" height="6" style="stroke:#C82930;stroke-width:1.0;" width="6" x="15" y="750.7422"/><text fill="#000000" font-family="sans-serif" font-size="14" lengthAdjust="spacing" textLength="255" x="27" y="757.9707">boolean isValidStraightMove(Position to)</text><rect fill="#F24D5C" height="6" style="stroke:#C82930;stroke-width:1.0;" width="6" x="15" y="768.3516"/><text fill="#000000" font-family="sans-serif" font-size="14" lengthAdjust="spacing" textLength="257" x="27" y="775.5801">boolean isValidCaptureMove(Position to)</text><rect fill="#F24D5C" height="6" style="stroke:#C82930;stroke-width:1.0;" width="6" x="15" y="785.9609"/><text fill="#000000" font-family="sans-serif" font-size="14" lengthAdjust="spacing" textLength="243" x="27" y="793.1895">boolean moveIsEnPassant(Position to)</text></g><!--MD5=[f12c1f668f765232aff110b8f6a6681d]
class Knight--><g id="elem_Knight"><rect codeLine="82" fill="#F1F1F1" height="100.8281" id="Knight" rx="2.5" ry="2.5" style="stroke:#181818;stroke-width:0.5;" width="243" x="435" y="664"/><ellipse cx="532.25" cy="680" fill="#ADD1B2" rx="11" ry="11" style="stroke:#181818;stroke-width:1.0;"/><path d="M535.0156,675.875 Q535.1719,675.6563 535.3594,675.5469 Q535.5469,675.4375 535.7656,675.4375 Q536.1406,675.4375 536.375,675.7031 Q536.6094,675.9531 536.6094,676.5625 L536.6094,678.0156 Q536.6094,678.625 536.375,678.8906 Q536.1406,679.1563 535.7656,679.1563 Q535.4219,679.1563 535.2188,678.9531 Q535.0156,678.7656 534.9063,678.25 Q534.8594,677.8906 534.6719,677.7031 Q534.3438,677.3281 533.7344,677.1094 Q533.125,676.8906 532.5,676.8906 Q531.7344,676.8906 531.0938,677.2188 Q530.4688,677.5469 529.9688,678.2969 Q529.4844,679.0469 529.4844,680.0781 L529.4844,681.1719 Q529.4844,682.4063 530.375,683.2344 Q531.2656,684.0469 532.8594,684.0469 Q533.7969,684.0469 534.4531,683.7969 Q534.8438,683.6406 535.2656,683.2031 Q535.5313,682.9375 535.6719,682.8594 Q535.8281,682.7813 536.0313,682.7813 Q536.3594,682.7813 536.6094,683.0469 Q536.875,683.2969 536.875,683.6406 Q536.875,683.9844 536.5313,684.3906 Q536.0313,684.9688 535.2344,685.2969 Q534.1563,685.75 532.8594,685.75 Q531.3438,685.75 530.1406,685.125 Q529.1563,684.625 528.4688,683.5625 Q527.7813,682.4844 527.7813,681.2031 L527.7813,680.0469 Q527.7813,678.7188 528.3906,677.5781 Q529.0156,676.4219 530.1094,675.8125 Q531.2031,675.1875 532.4375,675.1875 Q533.1719,675.1875 533.8125,675.3594 Q534.4688,675.5156 535.0156,675.875 Z " fill="#000000"/><text fill="#000000" font-family="sans-serif" font-size="14" lengthAdjust="spacing" textLength="40" x="552.75" y="685.7285">Knight</text><line style="stroke:#181818;stroke-width:0.5;" x1="436" x2="677" y1="696" y2="696"/><rect fill="none" height="6" style="stroke:#C82930;stroke-width:1.0;" width="6" x="443" y="707.3047"/><text fill="#000000" font-family="sans-serif" font-size="14" lengthAdjust="spacing" text-decoration="underline" textLength="43" x="455" y="714.5332">int[] dX</text><rect fill="none" height="6" style="stroke:#C82930;stroke-width:1.0;" width="6" x="443" y="724.9141"/><text fill="#000000" font-family="sans-serif" font-size="14" lengthAdjust="spacing" text-decoration="underline" textLength="44" x="455" y="732.1426">int[] dY</text><line style="stroke:#181818;stroke-width:0.5;" x1="436" x2="677" y1="739.2188" y2="739.2188"/><rect fill="#F24D5C" height="6" style="stroke:#C82930;stroke-width:1.0;" width="6" x="443" y="750.5234"/><text fill="#000000" font-family="sans-serif" font-size="14" lengthAdjust="spacing" textLength="217" x="455" y="757.752">boolean validOnBoard(Position to)</text></g><!--MD5=[76412a1b87b0f1c748604a3142aab9ae]
class King--><g id="elem_King"><rect codeLine="89" fill="#F1F1F1" height="136.0469" id="King" rx="2.5" ry="2.5" style="stroke:#181818;stroke-width:0.5;" width="304" x="713.5" y="646.5"/><ellipse cx="847.25" cy="662.5" fill="#ADD1B2" rx="11" ry="11" style="stroke:#181818;stroke-width:1.0;"/><path d="M850.0156,658.375 Q850.1719,658.1563 850.3594,658.0469 Q850.5469,657.9375 850.7656,657.9375 Q851.1406,657.9375 851.375,658.2031 Q851.6094,658.4531 851.6094,659.0625 L851.6094,660.5156 Q851.6094,661.125 851.375,661.3906 Q851.1406,661.6563 850.7656,661.6563 Q850.4219,661.6563 850.2188,661.4531 Q850.0156,661.2656 849.9063,660.75 Q849.8594,660.3906 849.6719,660.2031 Q849.3438,659.8281 848.7344,659.6094 Q848.125,659.3906 847.5,659.3906 Q846.7344,659.3906 846.0938,659.7188 Q845.4688,660.0469 844.9688,660.7969 Q844.4844,661.5469 844.4844,662.5781 L844.4844,663.6719 Q844.4844,664.9063 845.375,665.7344 Q846.2656,666.5469 847.8594,666.5469 Q848.7969,666.5469 849.4531,666.2969 Q849.8438,666.1406 850.2656,665.7031 Q850.5313,665.4375 850.6719,665.3594 Q850.8281,665.2813 851.0313,665.2813 Q851.3594,665.2813 851.6094,665.5469 Q851.875,665.7969 851.875,666.1406 Q851.875,666.4844 851.5313,666.8906 Q851.0313,667.4688 850.2344,667.7969 Q849.1563,668.25 847.8594,668.25 Q846.3438,668.25 845.1406,667.625 Q844.1563,667.125 843.4688,666.0625 Q842.7813,664.9844 842.7813,663.7031 L842.7813,662.5469 Q842.7813,661.2188 843.3906,660.0781 Q844.0156,658.9219 845.1094,658.3125 Q846.2031,657.6875 847.4375,657.6875 Q848.1719,657.6875 848.8125,657.8594 Q849.4688,658.0156 850.0156,658.375 Z " fill="#000000"/><text fill="#000000" font-family="sans-serif" font-size="14" lengthAdjust="spacing" textLength="28" x="867.75" y="668.2285">King</text><line style="stroke:#181818;stroke-width:0.5;" x1="714.5" x2="1016.5" y1="678.5" y2="678.5"/><line style="stroke:#181818;stroke-width:0.5;" x1="714.5" x2="1016.5" y1="686.5" y2="686.5"/><ellipse cx="724.5" cy="700.8047" fill="#84BE84" rx="3" ry="3" style="stroke:#038048;stroke-width:1.0;"/><text fill="#000000" font-family="sans-serif" font-size="14" lengthAdjust="spacing" textLength="116" x="733.5" y="705.0332">boolean inCheck()</text><rect fill="#F24D5C" height="6" style="stroke:#C82930;stroke-width:1.0;" width="6" x="721.5" y="715.4141"/><text fill="#000000" font-family="sans-serif" font-size="14" lengthAdjust="spacing" textLength="278" x="733.5" y="722.6426">boolean positionIsInCheck(Position position)</text><rect fill="#F24D5C" height="6" style="stroke:#C82930;stroke-width:1.0;" width="6" x="721.5" y="733.0234"/><text fill="#000000" font-family="sans-serif" font-size="14" lengthAdjust="spacing" textLength="171" x="733.5" y="740.252">boolean canCastleQueen()</text><rect fill="#F24D5C" height="6" style="stroke:#C82930;stroke-width:1.0;" width="6" x="721.5" y="750.6328"/><text fill="#000000" font-family="sans-serif" font-size="14" lengthAdjust="spacing" textLength="156" x="733.5" y="757.8613">boolean canCastleKing()</text><rect fill="#F24D5C" height="6" style="stroke:#C82930;stroke-width:1.0;" width="6" x="721.5" y="768.2422"/><text fill="#000000" font-family="sans-serif" font-size="14" lengthAdjust="spacing" textLength="254" x="733.5" y="775.4707">Collection&lt;Position&gt; getCastlingMoves()</text></g><!--MD5=[7eb2e5149132fc1bf5b1c5f0e025903b]
reverse link Player to ChessBoard--><g id="link_Player_ChessBoard"><path codeLine="97" d="M306.62,190.48 C298.55,211.17 289.82,233.51 281.13,255.76 " fill="none" id="Player-backto-ChessBoard" style="stroke:#181818;stroke-width:1.0;"/><polygon fill="#181818" points="311.43,178.17,305.5205,182.3025,307.0622,189.3469,312.9717,185.2144,311.43,178.17" style="stroke:#181818;stroke-width:1.0;"/><text fill="#000000" font-family="sans-serif" font-size="13" lengthAdjust="spacing" textLength="42" x="298.5" y="222.4951">players</text><text fill="#000000" font-family="sans-serif" font-size="13" lengthAdjust="spacing" textLength="7" x="301.2873" y="199.7186">2</text><text fill="#000000" font-family="sans-serif" font-size="13" lengthAdjust="spacing" textLength="7" x="276.8972" y="245.3049">1</text></g><!--MD5=[bca16db19a44def751036e796da707ec]
reverse link ChessBoard to Piece--><g id="link_ChessBoard_Piece"><path codeLine="98" d="M362.2,412 C382.47,412 403.27,412 423.37,412 " fill="none" id="ChessBoard-backto-Piece" style="stroke:#181818;stroke-width:1.0;"/><polygon fill="none" points="348.97,412,354.97,416,360.97,412,354.97,408,348.97,412" style="stroke:#181818;stroke-width:1.0;"/><text fill="#000000" font-family="sans-serif" font-size="13" lengthAdjust="spacing" textLength="38" x="367" y="405.4951">pieces</text><text fill="#000000" font-family="sans-serif" font-size="13" lengthAdjust="spacing" textLength="7" x="356.5995" y="409.0387">1</text><text fill="#000000" font-family="sans-serif" font-size="13" lengthAdjust="spacing" textLength="5" x="410.5289" y="409.045">*</text></g><!--MD5=[564d1e3c22273d5ab01cadd7d5b29510]
reverse link Position to Piece--><g id="link_Position_Piece"><path codeLine="99" d="M556.5,165.03 C556.5,197.09 556.5,236.03 556.5,273.38 " fill="none" id="Position-backto-Piece" style="stroke:#181818;stroke-width:1.0;"/><polygon fill="none" points="556.5,151.73,552.5,157.73,556.5,163.73,560.5,157.73,556.5,151.73" style="stroke:#181818;stroke-width:1.0;"/><text fill="#000000" font-family="sans-serif" font-size="13" lengthAdjust="spacing" textLength="45" x="557.5" y="222.4951">position</text><text fill="#000000" font-family="sans-serif" font-size="13" lengthAdjust="spacing" textLength="7" x="549.0734" y="173.4135">1</text><text fill="#000000" font-family="sans-serif" font-size="13" lengthAdjust="spacing" textLength="7" x="549.3086" y="262.8686">1</text></g><!--MD5=[ec77ffabf215c452de535e5e27276e25]
reverse link Player to Piece--><g id="link_Player_Piece"><path codeLine="100" d="M408.48,189.31 C426.12,215.74 445.62,244.94 464.51,273.24 " fill="none" id="Player-backto-Piece" style="stroke:#181818;stroke-width:1.0;"/><polygon fill="#181818" points="401.03,178.17,401.0388,185.3811,407.6986,188.1465,407.6898,180.9354,401.03,178.17" style="stroke:#181818;stroke-width:1.0;"/><text fill="#000000" font-family="sans-serif" font-size="13" lengthAdjust="spacing" textLength="34" x="433.5" y="222.4951">owner</text><text fill="#000000" font-family="sans-serif" font-size="13" lengthAdjust="spacing" textLength="7" x="398.5873" y="199.7186">1</text><text fill="#000000" font-family="sans-serif" font-size="13" lengthAdjust="spacing" textLength="5" x="454.3426" y="262.7209">*</text></g><!--MD5=[9f812a98cb9947e5b96a7c66f6bc972c]
reverse link Piece to Pawn--><g id="link_Piece_Pawn"><path codeLine="102" d="M407.71,539.66 C372.33,569.78 335.43,601.19 302.89,628.89 " fill="none" id="Piece-backto-Pawn" style="stroke:#181818;stroke-width:1.0;"/><polygon fill="none" points="403.53,534.03,423.3,526.39,412.61,544.69,403.53,534.03" style="stroke:#181818;stroke-width:1.0;"/></g><!--MD5=[0bba69bd4d15d8b23c124755577550ff]
reverse link Piece to Knight--><g id="link_Piece_Knight"><path codeLine="103" d="M556.5,571.35 C556.5,605.04 556.5,638.19 556.5,663.99 " fill="none" id="Piece-backto-Knight" style="stroke:#181818;stroke-width:1.0;"/><polygon fill="none" points="549.5,570.94,556.5,550.94,563.5,570.94,549.5,570.94" style="stroke:#181818;stroke-width:1.0;"/></g><!--MD5=[9fa21af85290b4f921ebc4dd17726164]
reverse link Piece to King--><g id="link_Piece_King"><path codeLine="104" d="M704.23,564.82 C705.33,565.88 706.41,566.94 707.5,568 C734.24,593.99 764.19,621.88 790.78,646.22 " fill="none" id="Piece-backto-King" style="stroke:#181818;stroke-width:1.0;"/><polygon fill="none" points="699.26,569.74,689.91,550.73,709.07,559.76,699.26,569.74" style="stroke:#181818;stroke-width:1.0;"/></g><!--MD5=[6febc7b042419303f5439afd009c268c]
link LinearPiece to Piece--><g id="link_LinearPiece_Piece"><path codeLine="105" d="M789.41,134.03 C762.7,165.8 723.73,212.14 685.29,257.85 " fill="none" id="LinearPiece-to-Piece" style="stroke:#181818;stroke-width:1.0;"/><polygon fill="none" points="690.52,262.51,672.29,273.31,679.8,253.5,690.52,262.51" style="stroke:#181818;stroke-width:1.0;"/></g><!--MD5=[47177df6558a6374ab11c90374b65a26]
reverse link LinearPiece to Bishop--><g id="link_LinearPiece_Bishop"><path codeLine="107" d="M830.95,154.13 C839.67,225.14 853.68,339.23 859.66,387.85 " fill="none" id="LinearPiece-backto-Bishop" style="stroke:#181818;stroke-width:1.0;"/><polygon fill="none" points="823.97,154.74,828.48,134.03,837.87,153.03,823.97,154.74" style="stroke:#181818;stroke-width:1.0;"/></g><!--MD5=[3616e0cdb66b52a8549c95eb2d5d3e47]
reverse link LinearPiece to Queen--><g id="link_LinearPiece_Queen"><path codeLine="108" d="M860.53,151.49 C879.04,181.9 900.96,220.18 917.5,256 C938.45,301.36 956.46,357.14 965.76,387.89 " fill="none" id="LinearPiece-backto-Queen" style="stroke:#181818;stroke-width:1.0;"/><polygon fill="none" points="854.36,154.82,849.81,134.13,866.27,147.47,854.36,154.82" style="stroke:#181818;stroke-width:1.0;"/></g><!--MD5=[24bce7057964433b49cb0387e765e835]
reverse link LinearPiece to Rook--><g id="link_LinearPiece_Rook"><path codeLine="109" d="M810.99,153.67 C796.24,224.65 772.44,339.12 762.31,387.85 " fill="none" id="LinearPiece-backto-Rook" style="stroke:#181818;stroke-width:1.0;"/><polygon fill="none" points="804.15,152.19,815.07,134.03,817.86,155.04,804.15,152.19" style="stroke:#181818;stroke-width:1.0;"/></g><!--MD5=[58e80cd9f6d6742b44320d654de74c5f]
@startuml classdiagram

class ChessBoard {
    -ArrayList<ArrayList<Piece>> board
    -Player white
    -Player black

    +Piece getPosition(Position position)
    +void move(Piece piece, Position to)
    +boolean inCheck(Player player)
    +Piece getLastPieceMoved()
    +String getCastlingRights()
    +String getFEN()
    +Player getPlayerTurn()
    +boolean getGameFinished()
    +Piece getSelectedPiece()
    -boolean inDraw()
    -boolean inStalemate(Player player)
    -boolean inCheckmate(Player player)
}

class Position {
    -int x
    -int y
    +int getX()
    +int getY()
}

class Player {
    -boolean white

    +void toggleHasTurn()
    +boolean hasTurn()
    +int getDir()
    +boolean isWhite()
    +void disableCastling()
    +String getCastlingRights()
}

abstract class Piece {
    #Position pos
    #ChessBoard board
    #Player owner
    #String name

    #{abstract} boolean threatening(Position position)
    +{abstract} Collection<Position> getLegalMoves()
    +int getX()
    +int getY()
    +boolean isValidMove(Position to)
    +boolean isWhite()
    +Position getPos()
    +void move(Position to)
    +Player getOwner()
}

abstract class LinearPiece {
    -Collection<Position> legalDirections

    #void setDirections(List<Position> directions)
}

class Bishop {
}

class Queen {
}

class Rook {
}

class Pawn {
    -boolean hasMoved
    -boolean hasMadeAnPassant

    +void setHasMadeAnPassant(boolean hasMadeAnPassant)
    +boolean getHasMadeEnPassant()
    -boolean isValidStraightMove(Position to)
    -boolean isValidCaptureMove(Position to)
    -boolean moveIsEnPassant(Position to)
}

class Knight {
    -{static} int[] dX
    -{static} int[] dY

    -boolean validOnBoard(Position to)
}

class King {
    +boolean inCheck()
    -boolean positionIsInCheck(Position position)
    -boolean canCastleQueen()
    -boolean canCastleKing()
    -Collection<Position> getCastlingMoves()
}

Player "2" *- - "1" ChessBoard : "players"
ChessBoard "1" o-r- "*" Piece : "pieces"
Position "1" o- - "1" Piece : "position"
Player "1" *-r- "*" Piece : "owner"

Piece <|- - Pawn
Piece <|- - Knight
Piece <|- - King
Piece <|-u- LinearPiece

LinearPiece <|-d- Bishop
LinearPiece <|-d- Queen
LinearPiece <|-d- Rook


@enduml

PlantUML version 1.2022.7(Mon Aug 22 19:01:30 CEST 2022)
(GPL source distribution)
Java Runtime: OpenJDK Runtime Environment
JVM: OpenJDK 64-Bit Server VM
Default Encoding: Cp1252
Language: no
Country: NO
--></g></svg>