<?xml version="1.0" encoding="UTF-8" standalone="no"?><svg xmlns="http://www.w3.org/2000/svg" xmlns:xlink="http://www.w3.org/1999/xlink" contentStyleType="text/css" height="772px" preserveAspectRatio="none" style="width:947px;height:772px;background:#FFFFFF;" version="1.1" viewBox="0 0 947 772" width="947px" zoomAndPan="magnify"><defs/><g><!--MD5=[d033de46590f850ffdf7ae6d070a6158]
class ChessBoard--><g id="elem_ChessBoard"><rect codeLine="2" fill="#F1F1F1" height="312.1406" id="ChessBoard" rx="2.5" ry="2.5" style="stroke:#181818;stroke-width:0.5;" width="256" x="7" y="256"/><ellipse cx="91.75" cy="272" fill="#ADD1B2" rx="11" ry="11" style="stroke:#181818;stroke-width:1.0;"/><path d="M94.5156,267.875 Q94.6719,267.6563 94.8594,267.5469 Q95.0469,267.4375 95.2656,267.4375 Q95.6406,267.4375 95.875,267.7031 Q96.1094,267.9531 96.1094,268.5625 L96.1094,270.0156 Q96.1094,270.625 95.875,270.8906 Q95.6406,271.1563 95.2656,271.1563 Q94.9219,271.1563 94.7188,270.9531 Q94.5156,270.7656 94.4063,270.25 Q94.3594,269.8906 94.1719,269.7031 Q93.8438,269.3281 93.2344,269.1094 Q92.625,268.8906 92,268.8906 Q91.2344,268.8906 90.5938,269.2188 Q89.9688,269.5469 89.4688,270.2969 Q88.9844,271.0469 88.9844,272.0781 L88.9844,273.1719 Q88.9844,274.4063 89.875,275.2344 Q90.7656,276.0469 92.3594,276.0469 Q93.2969,276.0469 93.9531,275.7969 Q94.3438,275.6406 94.7656,275.2031 Q95.0313,274.9375 95.1719,274.8594 Q95.3281,274.7813 95.5313,274.7813 Q95.8594,274.7813 96.1094,275.0469 Q96.375,275.2969 96.375,275.6406 Q96.375,275.9844 96.0313,276.3906 Q95.5313,276.9688 94.7344,277.2969 Q93.6563,277.75 92.3594,277.75 Q90.8438,277.75 89.6406,277.125 Q88.6563,276.625 87.9688,275.5625 Q87.2813,274.4844 87.2813,273.2031 L87.2813,272.0469 Q87.2813,270.7188 87.8906,269.5781 Q88.5156,268.4219 89.6094,267.8125 Q90.7031,267.1875 91.9375,267.1875 Q92.6719,267.1875 93.3125,267.3594 Q93.9688,267.5156 94.5156,267.875 Z " fill="#000000"/><text fill="#000000" font-family="sans-serif" font-size="14" lengthAdjust="spacing" textLength="78" x="112.25" y="277.7285">ChessBoard</text><line style="stroke:#181818;stroke-width:0.5;" x1="8" x2="262" y1="288" y2="288"/><rect fill="none" height="6" style="stroke:#C82930;stroke-width:1.0;" width="6" x="15" y="299.3047"/><text fill="#000000" font-family="sans-serif" font-size="14" lengthAdjust="spacing" textLength="220" x="27" y="306.5332">ArrayList&lt;ArrayList&lt;Piece&gt;&gt; board</text><rect fill="none" height="6" style="stroke:#C82930;stroke-width:1.0;" width="6" x="15" y="316.9141"/><text fill="#000000" font-family="sans-serif" font-size="14" lengthAdjust="spacing" textLength="76" x="27" y="324.1426">Player white</text><rect fill="none" height="6" style="stroke:#C82930;stroke-width:1.0;" width="6" x="15" y="334.5234"/><text fill="#000000" font-family="sans-serif" font-size="14" lengthAdjust="spacing" textLength="77" x="27" y="341.752">Player black</text><line style="stroke:#181818;stroke-width:0.5;" x1="8" x2="262" y1="348.8281" y2="348.8281"/><ellipse cx="18" cy="363.1328" fill="#84BE84" rx="3" ry="3" style="stroke:#038048;stroke-width:1.0;"/><text fill="#000000" font-family="sans-serif" font-size="14" lengthAdjust="spacing" textLength="222" x="27" y="367.3613">Piece getPosition(Position position)</text><ellipse cx="18" cy="380.7422" fill="#84BE84" rx="3" ry="3" style="stroke:#038048;stroke-width:1.0;"/><text fill="#000000" font-family="sans-serif" font-size="14" lengthAdjust="spacing" textLength="221" x="27" y="384.9707">void move(Piece piece, Position to)</text><ellipse cx="18" cy="398.3516" fill="#84BE84" rx="3" ry="3" style="stroke:#038048;stroke-width:1.0;"/><text fill="#000000" font-family="sans-serif" font-size="14" lengthAdjust="spacing" textLength="199" x="27" y="402.5801">boolean inCheck(Player player)</text><ellipse cx="18" cy="415.9609" fill="#84BE84" rx="3" ry="3" style="stroke:#038048;stroke-width:1.0;"/><text fill="#000000" font-family="sans-serif" font-size="14" lengthAdjust="spacing" textLength="173" x="27" y="420.1895">Piece getLastPieceMoved()</text><ellipse cx="18" cy="433.5703" fill="#84BE84" rx="3" ry="3" style="stroke:#038048;stroke-width:1.0;"/><text fill="#000000" font-family="sans-serif" font-size="14" lengthAdjust="spacing" textLength="162" x="27" y="437.7988">String getCastlingRights()</text><ellipse cx="18" cy="451.1797" fill="#84BE84" rx="3" ry="3" style="stroke:#038048;stroke-width:1.0;"/><text fill="#000000" font-family="sans-serif" font-size="14" lengthAdjust="spacing" textLength="98" x="27" y="455.4082">String getFEN()</text><ellipse cx="18" cy="468.7891" fill="#84BE84" rx="3" ry="3" style="stroke:#038048;stroke-width:1.0;"/><text fill="#000000" font-family="sans-serif" font-size="14" lengthAdjust="spacing" textLength="144" x="27" y="473.0176">Player getPlayerTurn()</text><ellipse cx="18" cy="486.3984" fill="#84BE84" rx="3" ry="3" style="stroke:#038048;stroke-width:1.0;"/><text fill="#000000" font-family="sans-serif" font-size="14" lengthAdjust="spacing" textLength="177" x="27" y="490.627">boolean getGameFinished()</text><ellipse cx="18" cy="504.0078" fill="#84BE84" rx="3" ry="3" style="stroke:#038048;stroke-width:1.0;"/><text fill="#000000" font-family="sans-serif" font-size="14" lengthAdjust="spacing" textLength="159" x="27" y="508.2363">Piece getSelectedPiece()</text><rect fill="#F24D5C" height="6" style="stroke:#C82930;stroke-width:1.0;" width="6" x="15" y="518.6172"/><text fill="#000000" font-family="sans-serif" font-size="14" lengthAdjust="spacing" textLength="108" x="27" y="525.8457">boolean inDraw()</text><rect fill="#F24D5C" height="6" style="stroke:#C82930;stroke-width:1.0;" width="6" x="15" y="536.2266"/><text fill="#000000" font-family="sans-serif" font-size="14" lengthAdjust="spacing" textLength="222" x="27" y="543.4551">boolean inStalemate(Player player)</text><rect fill="#F24D5C" height="6" style="stroke:#C82930;stroke-width:1.0;" width="6" x="15" y="553.8359"/><text fill="#000000" font-family="sans-serif" font-size="14" lengthAdjust="spacing" textLength="230" x="27" y="561.0645">boolean inCheckmate(Player player)</text></g><!--MD5=[a64a835c3d62471a77f615251fdde58a]
class Position--><g id="elem_Position"><rect codeLine="21" fill="#F1F1F1" height="118.4375" id="Position" rx="2.5" ry="2.5" style="stroke:#181818;stroke-width:0.5;" width="84" x="429" y="33.5"/><ellipse cx="444.9" cy="49.5" fill="#ADD1B2" rx="11" ry="11" style="stroke:#181818;stroke-width:1.0;"/><path d="M447.6656,45.375 Q447.8219,45.1563 448.0094,45.0469 Q448.1969,44.9375 448.4156,44.9375 Q448.7906,44.9375 449.025,45.2031 Q449.2594,45.4531 449.2594,46.0625 L449.2594,47.5156 Q449.2594,48.125 449.025,48.3906 Q448.7906,48.6563 448.4156,48.6563 Q448.0719,48.6563 447.8688,48.4531 Q447.6656,48.2656 447.5563,47.75 Q447.5094,47.3906 447.3219,47.2031 Q446.9938,46.8281 446.3844,46.6094 Q445.775,46.3906 445.15,46.3906 Q444.3844,46.3906 443.7438,46.7188 Q443.1188,47.0469 442.6188,47.7969 Q442.1344,48.5469 442.1344,49.5781 L442.1344,50.6719 Q442.1344,51.9063 443.025,52.7344 Q443.9156,53.5469 445.5094,53.5469 Q446.4469,53.5469 447.1031,53.2969 Q447.4938,53.1406 447.9156,52.7031 Q448.1813,52.4375 448.3219,52.3594 Q448.4781,52.2813 448.6813,52.2813 Q449.0094,52.2813 449.2594,52.5469 Q449.525,52.7969 449.525,53.1406 Q449.525,53.4844 449.1813,53.8906 Q448.6813,54.4688 447.8844,54.7969 Q446.8063,55.25 445.5094,55.25 Q443.9938,55.25 442.7906,54.625 Q441.8063,54.125 441.1188,53.0625 Q440.4313,51.9844 440.4313,50.7031 L440.4313,49.5469 Q440.4313,48.2188 441.0406,47.0781 Q441.6656,45.9219 442.7594,45.3125 Q443.8531,44.6875 445.0875,44.6875 Q445.8219,44.6875 446.4625,44.8594 Q447.1188,45.0156 447.6656,45.375 Z " fill="#000000"/><text fill="#000000" font-family="sans-serif" font-size="14" lengthAdjust="spacing" textLength="50" x="459.1" y="55.2285">Position</text><line style="stroke:#181818;stroke-width:0.5;" x1="430" x2="512" y1="65.5" y2="65.5"/><rect fill="none" height="6" style="stroke:#C82930;stroke-width:1.0;" width="6" x="437" y="76.8047"/><text fill="#000000" font-family="sans-serif" font-size="14" lengthAdjust="spacing" textLength="25" x="449" y="84.0332">int x</text><rect fill="none" height="6" style="stroke:#C82930;stroke-width:1.0;" width="6" x="437" y="94.4141"/><text fill="#000000" font-family="sans-serif" font-size="14" lengthAdjust="spacing" textLength="26" x="449" y="101.6426">int y</text><line style="stroke:#181818;stroke-width:0.5;" x1="430" x2="512" y1="108.7188" y2="108.7188"/><ellipse cx="440" cy="123.0234" fill="#84BE84" rx="3" ry="3" style="stroke:#038048;stroke-width:1.0;"/><text fill="#000000" font-family="sans-serif" font-size="14" lengthAdjust="spacing" textLength="57" x="449" y="127.252">int getX()</text><ellipse cx="440" cy="140.6328" fill="#84BE84" rx="3" ry="3" style="stroke:#038048;stroke-width:1.0;"/><text fill="#000000" font-family="sans-serif" font-size="14" lengthAdjust="spacing" textLength="58" x="449" y="144.8613">int getY()</text></g><!--MD5=[2cb47ba637a0d19583e6199456f6ad0b]
class Player--><g id="elem_Player"><rect codeLine="28" fill="#F1F1F1" height="171.2656" id="Player" rx="2.5" ry="2.5" style="stroke:#181818;stroke-width:0.5;" width="188" x="165" y="7"/><ellipse cx="234.75" cy="23" fill="#ADD1B2" rx="11" ry="11" style="stroke:#181818;stroke-width:1.0;"/><path d="M237.5156,18.875 Q237.6719,18.6563 237.8594,18.5469 Q238.0469,18.4375 238.2656,18.4375 Q238.6406,18.4375 238.875,18.7031 Q239.1094,18.9531 239.1094,19.5625 L239.1094,21.0156 Q239.1094,21.625 238.875,21.8906 Q238.6406,22.1563 238.2656,22.1563 Q237.9219,22.1563 237.7188,21.9531 Q237.5156,21.7656 237.4063,21.25 Q237.3594,20.8906 237.1719,20.7031 Q236.8438,20.3281 236.2344,20.1094 Q235.625,19.8906 235,19.8906 Q234.2344,19.8906 233.5938,20.2188 Q232.9688,20.5469 232.4688,21.2969 Q231.9844,22.0469 231.9844,23.0781 L231.9844,24.1719 Q231.9844,25.4063 232.875,26.2344 Q233.7656,27.0469 235.3594,27.0469 Q236.2969,27.0469 236.9531,26.7969 Q237.3438,26.6406 237.7656,26.2031 Q238.0313,25.9375 238.1719,25.8594 Q238.3281,25.7813 238.5313,25.7813 Q238.8594,25.7813 239.1094,26.0469 Q239.375,26.2969 239.375,26.6406 Q239.375,26.9844 239.0313,27.3906 Q238.5313,27.9688 237.7344,28.2969 Q236.6563,28.75 235.3594,28.75 Q233.8438,28.75 232.6406,28.125 Q231.6563,27.625 230.9688,26.5625 Q230.2813,25.4844 230.2813,24.2031 L230.2813,23.0469 Q230.2813,21.7188 230.8906,20.5781 Q231.5156,19.4219 232.6094,18.8125 Q233.7031,18.1875 234.9375,18.1875 Q235.6719,18.1875 236.3125,18.3594 Q236.9688,18.5156 237.5156,18.875 Z " fill="#000000"/><text fill="#000000" font-family="sans-serif" font-size="14" lengthAdjust="spacing" textLength="40" x="255.25" y="28.7285">Player</text><line style="stroke:#181818;stroke-width:0.5;" x1="166" x2="352" y1="39" y2="39"/><rect fill="none" height="6" style="stroke:#C82930;stroke-width:1.0;" width="6" x="173" y="50.3047"/><text fill="#000000" font-family="sans-serif" font-size="14" lengthAdjust="spacing" textLength="87" x="185" y="57.5332">boolean white</text><line style="stroke:#181818;stroke-width:0.5;" x1="166" x2="352" y1="64.6094" y2="64.6094"/><ellipse cx="176" cy="78.9141" fill="#84BE84" rx="3" ry="3" style="stroke:#038048;stroke-width:1.0;"/><text fill="#000000" font-family="sans-serif" font-size="14" lengthAdjust="spacing" textLength="133" x="185" y="83.1426">void toggleHasTurn()</text><ellipse cx="176" cy="96.5234" fill="#84BE84" rx="3" ry="3" style="stroke:#038048;stroke-width:1.0;"/><text fill="#000000" font-family="sans-serif" font-size="14" lengthAdjust="spacing" textLength="118" x="185" y="100.752">boolean hasTurn()</text><ellipse cx="176" cy="114.1328" fill="#84BE84" rx="3" ry="3" style="stroke:#038048;stroke-width:1.0;"/><text fill="#000000" font-family="sans-serif" font-size="14" lengthAdjust="spacing" textLength="67" x="185" y="118.3613">int getDir()</text><ellipse cx="176" cy="131.7422" fill="#84BE84" rx="3" ry="3" style="stroke:#038048;stroke-width:1.0;"/><text fill="#000000" font-family="sans-serif" font-size="14" lengthAdjust="spacing" textLength="111" x="185" y="135.9707">boolean isWhite()</text><ellipse cx="176" cy="149.3516" fill="#84BE84" rx="3" ry="3" style="stroke:#038048;stroke-width:1.0;"/><text fill="#000000" font-family="sans-serif" font-size="14" lengthAdjust="spacing" textLength="136" x="185" y="153.5801">void disableCastling()</text><ellipse cx="176" cy="166.9609" fill="#84BE84" rx="3" ry="3" style="stroke:#038048;stroke-width:1.0;"/><text fill="#000000" font-family="sans-serif" font-size="14" lengthAdjust="spacing" textLength="162" x="185" y="171.1895">String getCastlingRights()</text></g><!--MD5=[e05bacf3ff4416a0580578814d41bbf6]
class Piece--><g id="elem_Piece"><rect codeLine="39" fill="#F1F1F1" height="276.9219" id="Piece" rx="2.5" ry="2.5" style="stroke:#181818;stroke-width:0.5;" width="266" x="338" y="273.5"/><ellipse cx="449.25" cy="289.5" fill="#A9DCDF" rx="11" ry="11" style="stroke:#181818;stroke-width:1.0;"/><path d="M451.4375,291.2656 L447.2969,291.2656 L446.875,292.2969 L447.2969,292.2969 Q447.9063,292.2969 448.1719,292.5313 Q448.4375,292.7656 448.4375,293.1563 Q448.4375,293.5313 448.1719,293.7656 Q447.9063,294 447.2969,294 L445,294 Q444.3906,294 444.1406,293.7656 Q443.875,293.5313 443.875,293.1406 Q443.875,292.7656 444.1563,292.5313 Q444.4219,292.2813 445.0469,292.2969 L447.7188,285.6406 L446.6094,285.6406 Q446,285.6406 445.7344,285.4063 Q445.4688,285.1719 445.4688,284.7813 Q445.4688,284.4063 445.7344,284.1719 Q446,283.9375 446.6094,283.9375 L450.2813,283.9375 L453.6719,292.2969 Q454.2656,292.2969 454.4531,292.4375 Q454.8438,292.7031 454.8438,293.1563 Q454.8438,293.5313 454.5781,293.7656 Q454.3281,294 453.7188,294 L451.4219,294 Q450.8125,294 450.5469,293.7656 Q450.2813,293.5313 450.2813,293.1406 Q450.2813,292.7656 450.5469,292.5313 Q450.8125,292.2969 451.4219,292.2969 L451.8438,292.2969 L451.4375,291.2656 Z M450.7188,289.5625 L449.3594,286.1875 L447.9844,289.5625 L450.7188,289.5625 Z " fill="#000000"/><text fill="#000000" font-family="sans-serif" font-size="14" font-style="italic" lengthAdjust="spacing" textLength="35" x="469.75" y="295.2285">Piece</text><line style="stroke:#181818;stroke-width:0.5;" x1="339" x2="603" y1="305.5" y2="305.5"/><polygon fill="none" points="349,314.8047,353,318.8047,349,322.8047,345,318.8047" style="stroke:#B38D22;stroke-width:1.0;"/><text fill="#000000" font-family="sans-serif" font-size="14" lengthAdjust="spacing" textLength="77" x="358" y="324.0332">Position pos</text><polygon fill="none" points="349,332.4141,353,336.4141,349,340.4141,345,336.4141" style="stroke:#B38D22;stroke-width:1.0;"/><text fill="#000000" font-family="sans-serif" font-size="14" lengthAdjust="spacing" textLength="119" x="358" y="341.6426">ChessBoard board</text><polygon fill="none" points="349,350.0234,353,354.0234,349,358.0234,345,354.0234" style="stroke:#B38D22;stroke-width:1.0;"/><text fill="#000000" font-family="sans-serif" font-size="14" lengthAdjust="spacing" textLength="82" x="358" y="359.252">Player owner</text><polygon fill="none" points="349,367.6328,353,371.6328,349,375.6328,345,371.6328" style="stroke:#B38D22;stroke-width:1.0;"/><text fill="#000000" font-family="sans-serif" font-size="14" lengthAdjust="spacing" textLength="76" x="358" y="376.8613">String name</text><line style="stroke:#181818;stroke-width:0.5;" x1="339" x2="603" y1="383.9375" y2="383.9375"/><polygon fill="#FFFF44" points="349,393.2422,353,397.2422,349,401.2422,345,397.2422" style="stroke:#B38D22;stroke-width:1.0;"/><text fill="#000000" font-family="sans-serif" font-size="14" font-style="italic" lengthAdjust="spacing" textLength="240" x="358" y="402.4707">boolean threatening(Position position)</text><ellipse cx="349" cy="415.8516" fill="#84BE84" rx="3" ry="3" style="stroke:#038048;stroke-width:1.0;"/><text fill="#000000" font-family="sans-serif" font-size="14" font-style="italic" lengthAdjust="spacing" textLength="238" x="358" y="420.0801">Collection&lt;Position&gt; getLegalMoves()</text><ellipse cx="349" cy="433.4609" fill="#84BE84" rx="3" ry="3" style="stroke:#038048;stroke-width:1.0;"/><text fill="#000000" font-family="sans-serif" font-size="14" lengthAdjust="spacing" textLength="57" x="358" y="437.6895">int getX()</text><ellipse cx="349" cy="451.0703" fill="#84BE84" rx="3" ry="3" style="stroke:#038048;stroke-width:1.0;"/><text fill="#000000" font-family="sans-serif" font-size="14" lengthAdjust="spacing" textLength="58" x="358" y="455.2988">int getY()</text><ellipse cx="349" cy="468.6797" fill="#84BE84" rx="3" ry="3" style="stroke:#038048;stroke-width:1.0;"/><text fill="#000000" font-family="sans-serif" font-size="14" lengthAdjust="spacing" textLength="206" x="358" y="472.9082">boolean isValidMove(Position to)</text><ellipse cx="349" cy="486.2891" fill="#84BE84" rx="3" ry="3" style="stroke:#038048;stroke-width:1.0;"/><text fill="#000000" font-family="sans-serif" font-size="14" lengthAdjust="spacing" textLength="111" x="358" y="490.5176">boolean isWhite()</text><ellipse cx="349" cy="503.8984" fill="#84BE84" rx="3" ry="3" style="stroke:#038048;stroke-width:1.0;"/><text fill="#000000" font-family="sans-serif" font-size="14" lengthAdjust="spacing" textLength="108" x="358" y="508.127">Position getPos()</text><ellipse cx="349" cy="521.5078" fill="#84BE84" rx="3" ry="3" style="stroke:#038048;stroke-width:1.0;"/><text fill="#000000" font-family="sans-serif" font-size="14" lengthAdjust="spacing" textLength="140" x="358" y="525.7363">void move(Position to)</text><ellipse cx="349" cy="539.1172" fill="#84BE84" rx="3" ry="3" style="stroke:#038048;stroke-width:1.0;"/><text fill="#000000" font-family="sans-serif" font-size="14" lengthAdjust="spacing" textLength="115" x="358" y="543.3457">Player getOwner()</text></g><!--MD5=[2a81b7d88c9d35220bf686282fa5f468]
class LinearPiece--><g id="elem_LinearPiece"><rect codeLine="56" fill="#F1F1F1" height="83.2188" id="LinearPiece" rx="2.5" ry="2.5" style="stroke:#181818;stroke-width:0.5;" width="301" x="639.5" y="370.5"/><ellipse cx="748.25" cy="386.5" fill="#A9DCDF" rx="11" ry="11" style="stroke:#181818;stroke-width:1.0;"/><path d="M750.4375,388.2656 L746.2969,388.2656 L745.875,389.2969 L746.2969,389.2969 Q746.9063,389.2969 747.1719,389.5313 Q747.4375,389.7656 747.4375,390.1563 Q747.4375,390.5313 747.1719,390.7656 Q746.9063,391 746.2969,391 L744,391 Q743.3906,391 743.1406,390.7656 Q742.875,390.5313 742.875,390.1406 Q742.875,389.7656 743.1563,389.5313 Q743.4219,389.2813 744.0469,389.2969 L746.7188,382.6406 L745.6094,382.6406 Q745,382.6406 744.7344,382.4063 Q744.4688,382.1719 744.4688,381.7813 Q744.4688,381.4063 744.7344,381.1719 Q745,380.9375 745.6094,380.9375 L749.2813,380.9375 L752.6719,389.2969 Q753.2656,389.2969 753.4531,389.4375 Q753.8438,389.7031 753.8438,390.1563 Q753.8438,390.5313 753.5781,390.7656 Q753.3281,391 752.7188,391 L750.4219,391 Q749.8125,391 749.5469,390.7656 Q749.2813,390.5313 749.2813,390.1406 Q749.2813,389.7656 749.5469,389.5313 Q749.8125,389.2969 750.4219,389.2969 L750.8438,389.2969 L750.4375,388.2656 Z M749.7188,386.5625 L748.3594,383.1875 L746.9844,386.5625 L749.7188,386.5625 Z " fill="#000000"/><text fill="#000000" font-family="sans-serif" font-size="14" font-style="italic" lengthAdjust="spacing" textLength="75" x="768.75" y="392.2285">LinearPiece</text><line style="stroke:#181818;stroke-width:0.5;" x1="640.5" x2="939.5" y1="402.5" y2="402.5"/><rect fill="none" height="6" style="stroke:#C82930;stroke-width:1.0;" width="6" x="647.5" y="413.8047"/><text fill="#000000" font-family="sans-serif" font-size="14" lengthAdjust="spacing" textLength="225" x="659.5" y="421.0332">Collection&lt;Position&gt; legalDirections</text><line style="stroke:#181818;stroke-width:0.5;" x1="640.5" x2="939.5" y1="428.1094" y2="428.1094"/><polygon fill="#FFFF44" points="650.5,437.4141,654.5,441.4141,650.5,445.4141,646.5,441.4141" style="stroke:#B38D22;stroke-width:1.0;"/><text fill="#000000" font-family="sans-serif" font-size="14" lengthAdjust="spacing" textLength="275" x="659.5" y="446.6426">void setDirections(List&lt;Position&gt; directions)</text></g><!--MD5=[449cd079d44679d193659f94873ba755]
class Bishop--><g id="elem_Bishop"><rect codeLine="62" fill="#F1F1F1" height="48" id="Bishop" rx="2.5" ry="2.5" style="stroke:#181818;stroke-width:0.5;" width="75" x="862.5" y="68.5"/><ellipse cx="877.5" cy="84.5" fill="#ADD1B2" rx="11" ry="11" style="stroke:#181818;stroke-width:1.0;"/><path d="M880.2656,80.375 Q880.4219,80.1563 880.6094,80.0469 Q880.7969,79.9375 881.0156,79.9375 Q881.3906,79.9375 881.625,80.2031 Q881.8594,80.4531 881.8594,81.0625 L881.8594,82.5156 Q881.8594,83.125 881.625,83.3906 Q881.3906,83.6563 881.0156,83.6563 Q880.6719,83.6563 880.4688,83.4531 Q880.2656,83.2656 880.1563,82.75 Q880.1094,82.3906 879.9219,82.2031 Q879.5938,81.8281 878.9844,81.6094 Q878.375,81.3906 877.75,81.3906 Q876.9844,81.3906 876.3438,81.7188 Q875.7188,82.0469 875.2188,82.7969 Q874.7344,83.5469 874.7344,84.5781 L874.7344,85.6719 Q874.7344,86.9063 875.625,87.7344 Q876.5156,88.5469 878.1094,88.5469 Q879.0469,88.5469 879.7031,88.2969 Q880.0938,88.1406 880.5156,87.7031 Q880.7813,87.4375 880.9219,87.3594 Q881.0781,87.2813 881.2813,87.2813 Q881.6094,87.2813 881.8594,87.5469 Q882.125,87.7969 882.125,88.1406 Q882.125,88.4844 881.7813,88.8906 Q881.2813,89.4688 880.4844,89.7969 Q879.4063,90.25 878.1094,90.25 Q876.5938,90.25 875.3906,89.625 Q874.4063,89.125 873.7188,88.0625 Q873.0313,86.9844 873.0313,85.7031 L873.0313,84.5469 Q873.0313,83.2188 873.6406,82.0781 Q874.2656,80.9219 875.3594,80.3125 Q876.4531,79.6875 877.6875,79.6875 Q878.4219,79.6875 879.0625,79.8594 Q879.7188,80.0156 880.2656,80.375 Z " fill="#000000"/><text fill="#000000" font-family="sans-serif" font-size="14" lengthAdjust="spacing" textLength="43" x="891.5" y="90.2285">Bishop</text><line style="stroke:#181818;stroke-width:0.5;" x1="863.5" x2="936.5" y1="100.5" y2="100.5"/><line style="stroke:#181818;stroke-width:0.5;" x1="863.5" x2="936.5" y1="108.5" y2="108.5"/></g><!--MD5=[b5524c1f1cf4f7aeecdc9b5af5b05d87]
class Queen--><g id="elem_Queen"><rect codeLine="65" fill="#F1F1F1" height="48" id="Queen" rx="2.5" ry="2.5" style="stroke:#181818;stroke-width:0.5;" width="75" x="752.5" y="68.5"/><ellipse cx="767.5" cy="84.5" fill="#ADD1B2" rx="11" ry="11" style="stroke:#181818;stroke-width:1.0;"/><path d="M770.2656,80.375 Q770.4219,80.1563 770.6094,80.0469 Q770.7969,79.9375 771.0156,79.9375 Q771.3906,79.9375 771.625,80.2031 Q771.8594,80.4531 771.8594,81.0625 L771.8594,82.5156 Q771.8594,83.125 771.625,83.3906 Q771.3906,83.6563 771.0156,83.6563 Q770.6719,83.6563 770.4688,83.4531 Q770.2656,83.2656 770.1563,82.75 Q770.1094,82.3906 769.9219,82.2031 Q769.5938,81.8281 768.9844,81.6094 Q768.375,81.3906 767.75,81.3906 Q766.9844,81.3906 766.3438,81.7188 Q765.7188,82.0469 765.2188,82.7969 Q764.7344,83.5469 764.7344,84.5781 L764.7344,85.6719 Q764.7344,86.9063 765.625,87.7344 Q766.5156,88.5469 768.1094,88.5469 Q769.0469,88.5469 769.7031,88.2969 Q770.0938,88.1406 770.5156,87.7031 Q770.7813,87.4375 770.9219,87.3594 Q771.0781,87.2813 771.2813,87.2813 Q771.6094,87.2813 771.8594,87.5469 Q772.125,87.7969 772.125,88.1406 Q772.125,88.4844 771.7813,88.8906 Q771.2813,89.4688 770.4844,89.7969 Q769.4063,90.25 768.1094,90.25 Q766.5938,90.25 765.3906,89.625 Q764.4063,89.125 763.7188,88.0625 Q763.0313,86.9844 763.0313,85.7031 L763.0313,84.5469 Q763.0313,83.2188 763.6406,82.0781 Q764.2656,80.9219 765.3594,80.3125 Q766.4531,79.6875 767.6875,79.6875 Q768.4219,79.6875 769.0625,79.8594 Q769.7188,80.0156 770.2656,80.375 Z " fill="#000000"/><text fill="#000000" font-family="sans-serif" font-size="14" lengthAdjust="spacing" textLength="43" x="781.5" y="90.2285">Queen</text><line style="stroke:#181818;stroke-width:0.5;" x1="753.5" x2="826.5" y1="100.5" y2="100.5"/><line style="stroke:#181818;stroke-width:0.5;" x1="753.5" x2="826.5" y1="108.5" y2="108.5"/></g><!--MD5=[6bd8cd731001ea389c78559e5d225136]
class Rook--><g id="elem_Rook"><rect codeLine="68" fill="#F1F1F1" height="48" id="Rook" rx="2.5" ry="2.5" style="stroke:#181818;stroke-width:0.5;" width="65" x="652.5" y="68.5"/><ellipse cx="667.5" cy="84.5" fill="#ADD1B2" rx="11" ry="11" style="stroke:#181818;stroke-width:1.0;"/><path d="M670.2656,80.375 Q670.4219,80.1563 670.6094,80.0469 Q670.7969,79.9375 671.0156,79.9375 Q671.3906,79.9375 671.625,80.2031 Q671.8594,80.4531 671.8594,81.0625 L671.8594,82.5156 Q671.8594,83.125 671.625,83.3906 Q671.3906,83.6563 671.0156,83.6563 Q670.6719,83.6563 670.4688,83.4531 Q670.2656,83.2656 670.1563,82.75 Q670.1094,82.3906 669.9219,82.2031 Q669.5938,81.8281 668.9844,81.6094 Q668.375,81.3906 667.75,81.3906 Q666.9844,81.3906 666.3438,81.7188 Q665.7188,82.0469 665.2188,82.7969 Q664.7344,83.5469 664.7344,84.5781 L664.7344,85.6719 Q664.7344,86.9063 665.625,87.7344 Q666.5156,88.5469 668.1094,88.5469 Q669.0469,88.5469 669.7031,88.2969 Q670.0938,88.1406 670.5156,87.7031 Q670.7813,87.4375 670.9219,87.3594 Q671.0781,87.2813 671.2813,87.2813 Q671.6094,87.2813 671.8594,87.5469 Q672.125,87.7969 672.125,88.1406 Q672.125,88.4844 671.7813,88.8906 Q671.2813,89.4688 670.4844,89.7969 Q669.4063,90.25 668.1094,90.25 Q666.5938,90.25 665.3906,89.625 Q664.4063,89.125 663.7188,88.0625 Q663.0313,86.9844 663.0313,85.7031 L663.0313,84.5469 Q663.0313,83.2188 663.6406,82.0781 Q664.2656,80.9219 665.3594,80.3125 Q666.4531,79.6875 667.6875,79.6875 Q668.4219,79.6875 669.0625,79.8594 Q669.7188,80.0156 670.2656,80.375 Z " fill="#000000"/><text fill="#000000" font-family="sans-serif" font-size="14" lengthAdjust="spacing" textLength="33" x="681.5" y="90.2285">Rook</text><line style="stroke:#181818;stroke-width:0.5;" x1="653.5" x2="716.5" y1="100.5" y2="100.5"/><line style="stroke:#181818;stroke-width:0.5;" x1="653.5" x2="716.5" y1="108.5" y2="108.5"/></g><!--MD5=[af29ca247b3a3642f0fb478cea99ef78]
class Pawn--><g id="elem_Pawn"><rect codeLine="71" fill="#F1F1F1" height="48" id="Pawn" rx="2.5" ry="2.5" style="stroke:#181818;stroke-width:0.5;" width="66" x="248" y="673"/><ellipse cx="263" cy="689" fill="#ADD1B2" rx="11" ry="11" style="stroke:#181818;stroke-width:1.0;"/><path d="M265.7656,684.875 Q265.9219,684.6563 266.1094,684.5469 Q266.2969,684.4375 266.5156,684.4375 Q266.8906,684.4375 267.125,684.7031 Q267.3594,684.9531 267.3594,685.5625 L267.3594,687.0156 Q267.3594,687.625 267.125,687.8906 Q266.8906,688.1563 266.5156,688.1563 Q266.1719,688.1563 265.9688,687.9531 Q265.7656,687.7656 265.6563,687.25 Q265.6094,686.8906 265.4219,686.7031 Q265.0938,686.3281 264.4844,686.1094 Q263.875,685.8906 263.25,685.8906 Q262.4844,685.8906 261.8438,686.2188 Q261.2188,686.5469 260.7188,687.2969 Q260.2344,688.0469 260.2344,689.0781 L260.2344,690.1719 Q260.2344,691.4063 261.125,692.2344 Q262.0156,693.0469 263.6094,693.0469 Q264.5469,693.0469 265.2031,692.7969 Q265.5938,692.6406 266.0156,692.2031 Q266.2813,691.9375 266.4219,691.8594 Q266.5781,691.7813 266.7813,691.7813 Q267.1094,691.7813 267.3594,692.0469 Q267.625,692.2969 267.625,692.6406 Q267.625,692.9844 267.2813,693.3906 Q266.7813,693.9688 265.9844,694.2969 Q264.9063,694.75 263.6094,694.75 Q262.0938,694.75 260.8906,694.125 Q259.9063,693.625 259.2188,692.5625 Q258.5313,691.4844 258.5313,690.2031 L258.5313,689.0469 Q258.5313,687.7188 259.1406,686.5781 Q259.7656,685.4219 260.8594,684.8125 Q261.9531,684.1875 263.1875,684.1875 Q263.9219,684.1875 264.5625,684.3594 Q265.2188,684.5156 265.7656,684.875 Z " fill="#000000"/><text fill="#000000" font-family="sans-serif" font-size="14" lengthAdjust="spacing" textLength="34" x="277" y="694.7285">Pawn</text><line style="stroke:#181818;stroke-width:0.5;" x1="249" x2="313" y1="705" y2="705"/><line style="stroke:#181818;stroke-width:0.5;" x1="249" x2="313" y1="713" y2="713"/></g><!--MD5=[f12c1f668f765232aff110b8f6a6681d]
class Knight--><g id="elem_Knight"><rect codeLine="74" fill="#F1F1F1" height="100.8281" id="Knight" rx="2.5" ry="2.5" style="stroke:#181818;stroke-width:0.5;" width="243" x="349.5" y="646.5"/><ellipse cx="446.75" cy="662.5" fill="#ADD1B2" rx="11" ry="11" style="stroke:#181818;stroke-width:1.0;"/><path d="M449.5156,658.375 Q449.6719,658.1563 449.8594,658.0469 Q450.0469,657.9375 450.2656,657.9375 Q450.6406,657.9375 450.875,658.2031 Q451.1094,658.4531 451.1094,659.0625 L451.1094,660.5156 Q451.1094,661.125 450.875,661.3906 Q450.6406,661.6563 450.2656,661.6563 Q449.9219,661.6563 449.7188,661.4531 Q449.5156,661.2656 449.4063,660.75 Q449.3594,660.3906 449.1719,660.2031 Q448.8438,659.8281 448.2344,659.6094 Q447.625,659.3906 447,659.3906 Q446.2344,659.3906 445.5938,659.7188 Q444.9688,660.0469 444.4688,660.7969 Q443.9844,661.5469 443.9844,662.5781 L443.9844,663.6719 Q443.9844,664.9063 444.875,665.7344 Q445.7656,666.5469 447.3594,666.5469 Q448.2969,666.5469 448.9531,666.2969 Q449.3438,666.1406 449.7656,665.7031 Q450.0313,665.4375 450.1719,665.3594 Q450.3281,665.2813 450.5313,665.2813 Q450.8594,665.2813 451.1094,665.5469 Q451.375,665.7969 451.375,666.1406 Q451.375,666.4844 451.0313,666.8906 Q450.5313,667.4688 449.7344,667.7969 Q448.6563,668.25 447.3594,668.25 Q445.8438,668.25 444.6406,667.625 Q443.6563,667.125 442.9688,666.0625 Q442.2813,664.9844 442.2813,663.7031 L442.2813,662.5469 Q442.2813,661.2188 442.8906,660.0781 Q443.5156,658.9219 444.6094,658.3125 Q445.7031,657.6875 446.9375,657.6875 Q447.6719,657.6875 448.3125,657.8594 Q448.9688,658.0156 449.5156,658.375 Z " fill="#000000"/><text fill="#000000" font-family="sans-serif" font-size="14" lengthAdjust="spacing" textLength="40" x="467.25" y="668.2285">Knight</text><line style="stroke:#181818;stroke-width:0.5;" x1="350.5" x2="591.5" y1="678.5" y2="678.5"/><rect fill="none" height="6" style="stroke:#C82930;stroke-width:1.0;" width="6" x="357.5" y="689.8047"/><text fill="#000000" font-family="sans-serif" font-size="14" lengthAdjust="spacing" text-decoration="underline" textLength="43" x="369.5" y="697.0332">int[] dX</text><rect fill="none" height="6" style="stroke:#C82930;stroke-width:1.0;" width="6" x="357.5" y="707.4141"/><text fill="#000000" font-family="sans-serif" font-size="14" lengthAdjust="spacing" text-decoration="underline" textLength="44" x="369.5" y="714.6426">int[] dY</text><line style="stroke:#181818;stroke-width:0.5;" x1="350.5" x2="591.5" y1="721.7188" y2="721.7188"/><rect fill="#F24D5C" height="6" style="stroke:#C82930;stroke-width:1.0;" width="6" x="357.5" y="733.0234"/><text fill="#000000" font-family="sans-serif" font-size="14" lengthAdjust="spacing" textLength="217" x="369.5" y="740.252">boolean validOnBoard(Position to)</text></g><!--MD5=[76412a1b87b0f1c748604a3142aab9ae]
class King--><g id="elem_King"><rect codeLine="81" fill="#F1F1F1" height="136.0469" id="King" rx="2.5" ry="2.5" style="stroke:#181818;stroke-width:0.5;" width="304" x="628" y="629"/><ellipse cx="761.75" cy="645" fill="#ADD1B2" rx="11" ry="11" style="stroke:#181818;stroke-width:1.0;"/><path d="M764.5156,640.875 Q764.6719,640.6563 764.8594,640.5469 Q765.0469,640.4375 765.2656,640.4375 Q765.6406,640.4375 765.875,640.7031 Q766.1094,640.9531 766.1094,641.5625 L766.1094,643.0156 Q766.1094,643.625 765.875,643.8906 Q765.6406,644.1563 765.2656,644.1563 Q764.9219,644.1563 764.7188,643.9531 Q764.5156,643.7656 764.4063,643.25 Q764.3594,642.8906 764.1719,642.7031 Q763.8438,642.3281 763.2344,642.1094 Q762.625,641.8906 762,641.8906 Q761.2344,641.8906 760.5938,642.2188 Q759.9688,642.5469 759.4688,643.2969 Q758.9844,644.0469 758.9844,645.0781 L758.9844,646.1719 Q758.9844,647.4063 759.875,648.2344 Q760.7656,649.0469 762.3594,649.0469 Q763.2969,649.0469 763.9531,648.7969 Q764.3438,648.6406 764.7656,648.2031 Q765.0313,647.9375 765.1719,647.8594 Q765.3281,647.7813 765.5313,647.7813 Q765.8594,647.7813 766.1094,648.0469 Q766.375,648.2969 766.375,648.6406 Q766.375,648.9844 766.0313,649.3906 Q765.5313,649.9688 764.7344,650.2969 Q763.6563,650.75 762.3594,650.75 Q760.8438,650.75 759.6406,650.125 Q758.6563,649.625 757.9688,648.5625 Q757.2813,647.4844 757.2813,646.2031 L757.2813,645.0469 Q757.2813,643.7188 757.8906,642.5781 Q758.5156,641.4219 759.6094,640.8125 Q760.7031,640.1875 761.9375,640.1875 Q762.6719,640.1875 763.3125,640.3594 Q763.9688,640.5156 764.5156,640.875 Z " fill="#000000"/><text fill="#000000" font-family="sans-serif" font-size="14" lengthAdjust="spacing" textLength="28" x="782.25" y="650.7285">King</text><line style="stroke:#181818;stroke-width:0.5;" x1="629" x2="931" y1="661" y2="661"/><line style="stroke:#181818;stroke-width:0.5;" x1="629" x2="931" y1="669" y2="669"/><ellipse cx="639" cy="683.3047" fill="#84BE84" rx="3" ry="3" style="stroke:#038048;stroke-width:1.0;"/><text fill="#000000" font-family="sans-serif" font-size="14" lengthAdjust="spacing" textLength="116" x="648" y="687.5332">boolean inCheck()</text><rect fill="#F24D5C" height="6" style="stroke:#C82930;stroke-width:1.0;" width="6" x="636" y="697.9141"/><text fill="#000000" font-family="sans-serif" font-size="14" lengthAdjust="spacing" textLength="278" x="648" y="705.1426">boolean positionIsInCheck(Position position)</text><rect fill="#F24D5C" height="6" style="stroke:#C82930;stroke-width:1.0;" width="6" x="636" y="715.5234"/><text fill="#000000" font-family="sans-serif" font-size="14" lengthAdjust="spacing" textLength="171" x="648" y="722.752">boolean canCastleQueen()</text><rect fill="#F24D5C" height="6" style="stroke:#C82930;stroke-width:1.0;" width="6" x="636" y="733.1328"/><text fill="#000000" font-family="sans-serif" font-size="14" lengthAdjust="spacing" textLength="156" x="648" y="740.3613">boolean canCastleKing()</text><rect fill="#F24D5C" height="6" style="stroke:#C82930;stroke-width:1.0;" width="6" x="636" y="750.7422"/><text fill="#000000" font-family="sans-serif" font-size="14" lengthAdjust="spacing" textLength="254" x="648" y="757.9707">Collection&lt;Position&gt; getCastlingMoves()</text></g><!--MD5=[7eb2e5149132fc1bf5b1c5f0e025903b]
reverse link Player to ChessBoard--><g id="link_Player_ChessBoard"><path codeLine="89" d="M221.12,190.48 C213.05,211.17 204.32,233.51 195.63,255.76 " fill="none" id="Player-backto-ChessBoard" style="stroke:#181818;stroke-width:1.0;"/><polygon fill="#181818" points="225.93,178.17,220.0205,182.3025,221.5622,189.3469,227.4717,185.2144,225.93,178.17" style="stroke:#181818;stroke-width:1.0;"/><text fill="#000000" font-family="sans-serif" font-size="13" lengthAdjust="spacing" textLength="42" x="213" y="222.4951">players</text><text fill="#000000" font-family="sans-serif" font-size="13" lengthAdjust="spacing" textLength="7" x="215.7873" y="199.7186">2</text><text fill="#000000" font-family="sans-serif" font-size="13" lengthAdjust="spacing" textLength="7" x="191.3972" y="245.3049">1</text></g><!--MD5=[bca16db19a44def751036e796da707ec]
reverse link ChessBoard to Piece--><g id="link_ChessBoard_Piece"><path codeLine="90" d="M276.7,412 C296.97,412 317.77,412 337.87,412 " fill="none" id="ChessBoard-backto-Piece" style="stroke:#181818;stroke-width:1.0;"/><polygon fill="none" points="263.47,412,269.47,416,275.47,412,269.47,408,263.47,412" style="stroke:#181818;stroke-width:1.0;"/><text fill="#000000" font-family="sans-serif" font-size="13" lengthAdjust="spacing" textLength="38" x="281.5" y="405.4951">pieces</text><text fill="#000000" font-family="sans-serif" font-size="13" lengthAdjust="spacing" textLength="7" x="271.0995" y="409.0387">1</text><text fill="#000000" font-family="sans-serif" font-size="13" lengthAdjust="spacing" textLength="7" x="322.9711" y="409.045">n</text></g><!--MD5=[564d1e3c22273d5ab01cadd7d5b29510]
reverse link Position to Piece--><g id="link_Position_Piece"><path codeLine="91" d="M471,165.03 C471,197.09 471,236.03 471,273.38 " fill="none" id="Position-backto-Piece" style="stroke:#181818;stroke-width:1.0;"/><polygon fill="none" points="471,151.73,467,157.73,471,163.73,475,157.73,471,151.73" style="stroke:#181818;stroke-width:1.0;"/><text fill="#000000" font-family="sans-serif" font-size="13" lengthAdjust="spacing" textLength="45" x="472" y="222.4951">position</text><text fill="#000000" font-family="sans-serif" font-size="13" lengthAdjust="spacing" textLength="7" x="463.5734" y="173.4135">1</text><text fill="#000000" font-family="sans-serif" font-size="13" lengthAdjust="spacing" textLength="7" x="463.8086" y="262.8686">1</text></g><!--MD5=[ec77ffabf215c452de535e5e27276e25]
reverse link Player to Piece--><g id="link_Player_Piece"><path codeLine="92" d="M322.98,189.31 C340.62,215.74 360.12,244.94 379.01,273.24 " fill="none" id="Player-backto-Piece" style="stroke:#181818;stroke-width:1.0;"/><polygon fill="#181818" points="315.53,178.17,315.5388,185.3811,322.1986,188.1465,322.1898,180.9354,315.53,178.17" style="stroke:#181818;stroke-width:1.0;"/><text fill="#000000" font-family="sans-serif" font-size="13" lengthAdjust="spacing" textLength="34" x="348" y="222.4951">owner</text><text fill="#000000" font-family="sans-serif" font-size="13" lengthAdjust="spacing" textLength="7" x="313.0873" y="199.7186">1</text><text fill="#000000" font-family="sans-serif" font-size="13" lengthAdjust="spacing" textLength="7" x="366.7879" y="262.7209">1</text></g><!--MD5=[9f812a98cb9947e5b96a7c66f6bc972c]
reverse link Piece to Pawn--><g id="link_Piece_Pawn"><path codeLine="94" d="M367.25,567.54 C339.58,608.75 312.91,648.48 296.73,672.57 " fill="none" id="Piece-backto-Pawn" style="stroke:#181818;stroke-width:1.0;"/><polygon fill="none" points="361.54,563.47,378.5,550.77,373.17,571.28,361.54,563.47" style="stroke:#181818;stroke-width:1.0;"/></g><!--MD5=[0bba69bd4d15d8b23c124755577550ff]
reverse link Piece to Knight--><g id="link_Piece_Knight"><path codeLine="95" d="M471,570.84 C471,598.28 471,624.9 471,646.48 " fill="none" id="Piece-backto-Knight" style="stroke:#181818;stroke-width:1.0;"/><polygon fill="none" points="464,570.77,471,550.77,478,570.77,464,570.77" style="stroke:#181818;stroke-width:1.0;"/></g><!--MD5=[9fa21af85290b4f921ebc4dd17726164]
reverse link Piece to King--><g id="link_Piece_King"><path codeLine="96" d="M618.27,564.58 C619.52,565.73 620.76,566.87 622,568 C644.43,588.46 669.62,609.62 693.18,628.7 " fill="none" id="Piece-backto-King" style="stroke:#181818;stroke-width:1.0;"/><polygon fill="none" points="613.36,569.58,603.54,550.8,622.93,559.35,613.36,569.58" style="stroke:#181818;stroke-width:1.0;"/></g><!--MD5=[ab90e03d12db53765c9fe9fcc6e6f93e]
reverse link Piece to LinearPiece--><g id="link_Piece_LinearPiece"><path codeLine="97" d="M624.12,412 C629.16,412 634.21,412 639.25,412 " fill="none" id="Piece-backto-LinearPiece" style="stroke:#181818;stroke-width:1.0;"/><polygon fill="none" points="624.02,419,604.02,412,624.02,405,624.02,419" style="stroke:#181818;stroke-width:1.0;"/></g><!--MD5=[9b7569e0f35a6230f89cc7c5ed7ad960]
link Bishop to LinearPiece--><g id="link_Bishop_LinearPiece"><path codeLine="99" d="M892,116.59 C875.11,165.33 835.36,280.08 810.77,351.06 " fill="none" id="Bishop-to-LinearPiece" style="stroke:#181818;stroke-width:1.0;"/><polygon fill="none" points="817.27,353.66,804.11,370.27,804.05,349.08,817.27,353.66" style="stroke:#181818;stroke-width:1.0;"/></g><!--MD5=[5ca6d65a3ff516e987701f758820a437]
link Queen to LinearPiece--><g id="link_Queen_LinearPiece"><path codeLine="100" d="M790,116.59 C790,165.12 790,279.1 790,350.15 " fill="none" id="Queen-to-LinearPiece" style="stroke:#181818;stroke-width:1.0;"/><polygon fill="none" points="797,350.27,790,370.27,783,350.27,797,350.27" style="stroke:#181818;stroke-width:1.0;"/></g><!--MD5=[1f58c06b0b20afc8e96c27c0cda7b3f4]
link Rook to LinearPiece--><g id="link_Rook_LinearPiece"><path codeLine="101" d="M692.64,116.59 C708.76,165.33 746.7,280.08 770.18,351.06 " fill="none" id="Rook-to-LinearPiece" style="stroke:#181818;stroke-width:1.0;"/><polygon fill="none" points="776.9,349.08,776.53,370.27,763.6,353.48,776.9,349.08" style="stroke:#181818;stroke-width:1.0;"/></g><!--MD5=[d00e9011526efa3d057a07a53491b230]
@startuml classdiagram

class ChessBoard {
    -ArrayList<ArrayList<Piece>> board
    -Player white
    -Player black

    +Piece getPosition(Position position)
    +void move(Piece piece, Position to)
    +boolean inCheck(Player player)
    +Piece getLastPieceMoved()
    +String getCastlingRights()
    +String getFEN()
    +Player getPlayerTurn()
    +boolean getGameFinished()
    +Piece getSelectedPiece()
    -boolean inDraw()
    -boolean inStalemate(Player player)
    -boolean inCheckmate(Player player)
}

class Position {
    -int x
    -int y
    +int getX()
    +int getY()
}

class Player {
    -boolean white

    +void toggleHasTurn()
    +boolean hasTurn()
    +int getDir()
    +boolean isWhite()
    +void disableCastling()
    +String getCastlingRights()
}

abstract class Piece {
    #Position pos
    #ChessBoard board
    #Player owner
    #String name

    #{abstract} boolean threatening(Position position)
    +{abstract} Collection<Position> getLegalMoves()
    +int getX()
    +int getY()
    +boolean isValidMove(Position to)
    +boolean isWhite()
    +Position getPos()
    +void move(Position to)
    +Player getOwner()
}

abstract class LinearPiece {
    -Collection<Position> legalDirections

    #void setDirections(List<Position> directions)
}

class Bishop {
}

class Queen {
}

class Rook {
}

class Pawn {
}

class Knight {
    -{static} int[] dX
    -{static} int[] dY

    -boolean validOnBoard(Position to)
}

class King {
    +boolean inCheck()
    -boolean positionIsInCheck(Position position)
    -boolean canCastleQueen()
    -boolean canCastleKing()
    -Collection<Position> getCastlingMoves()
}

Player "2" *- - "1" ChessBoard : "players"
ChessBoard "1" o-r- "n" Piece : "pieces"
Position "1" o- - "1" Piece : "position"
Player "1" *-r- "1" Piece : "owner"

Piece <|- - Pawn
Piece <|- - Knight
Piece <|- - King
Piece <|-r- LinearPiece

LinearPiece <|-u- Bishop
LinearPiece <|-u- Queen
LinearPiece <|-u- Rook


@enduml

PlantUML version 1.2022.7(Mon Aug 22 19:01:30 CEST 2022)
(GPL source distribution)
Java Runtime: OpenJDK Runtime Environment
JVM: OpenJDK 64-Bit Server VM
Default Encoding: Cp1252
Language: no
Country: NO
--></g></svg>
